<svg viewBox="0 0 1298 400" xmlns="http://www.w3.org/2000/svg"><g><g><g><g><g><line x1="51.5625" y1="377" x2="46.5625" y2="377" style="visibility: inherit;" fill="rgb(0, 0, 0)" stroke="rgb(204, 204, 204)" stroke-width="1px"></line><line x1="51.5625" y1="335.1111111111111" x2="46.5625" y2="335.1111111111111" style="visibility: inherit;" fill="rgb(0, 0, 0)" stroke="rgb(204, 204, 204)" stroke-width="1px"></line><line x1="51.5625" y1="293.22222222222223" x2="46.5625" y2="293.22222222222223" style="visibility: inherit;" fill="rgb(0, 0, 0)" stroke="rgb(204, 204, 204)" stroke-width="1px"></line><line x1="51.5625" y1="251.33333333333331" x2="46.5625" y2="251.33333333333331" style="visibility: inherit;" fill="rgb(0, 0, 0)" stroke="rgb(204, 204, 204)" stroke-width="1px"></line><line x1="51.5625" y1="209.44444444444446" x2="46.5625" y2="209.44444444444446" style="visibility: inherit;" fill="rgb(0, 0, 0)" stroke="rgb(204, 204, 204)" stroke-width="1px"></line><line x1="51.5625" y1="167.55555555555554" x2="46.5625" y2="167.55555555555554" style="visibility: inherit;" fill="rgb(0, 0, 0)" stroke="rgb(204, 204, 204)" stroke-width="1px"></line><line x1="51.5625" y1="125.66666666666669" x2="46.5625" y2="125.66666666666669" style="visibility: inherit;" fill="rgb(0, 0, 0)" stroke="rgb(204, 204, 204)" stroke-width="1px"></line><line x1="51.5625" y1="83.77777777777781" x2="46.5625" y2="83.77777777777781" style="visibility: inherit;" fill="rgb(0, 0, 0)" stroke="rgb(204, 204, 204)" stroke-width="1px"></line><line x1="51.5625" y1="41.88888888888891" x2="46.5625" y2="41.88888888888891" style="visibility: inherit;" fill="rgb(0, 0, 0)" stroke="rgb(204, 204, 204)" stroke-width="1px"></line><line x1="51.5625" y1="0" x2="46.5625" y2="0" style="visibility: inherit;" fill="rgb(0, 0, 0)" stroke="rgb(204, 204, 204)" stroke-width="1px"></line></g><g transform="translate(41.5625, 0)"><text x="0" y="377" dx="0em" dy="0.3em" style="text-anchor: end; visibility: hidden; font-family: Roboto, sans-serif; font-size: 12px; font-weight: 200;" fill="rgb(33, 33, 33)" stroke="none" stroke-width="1px">-0.2</text><text x="0" y="335.1111111111111" dx="0em" dy="0.3em" style="text-anchor: end; visibility: inherit; font-family: Roboto, sans-serif; font-size: 12px; font-weight: 200;" fill="rgb(33, 33, 33)" stroke="none" stroke-width="1px">0</text><text x="0" y="293.22222222222223" dx="0em" dy="0.3em" style="text-anchor: end; visibility: inherit; font-family: Roboto, sans-serif; font-size: 12px; font-weight: 200;" fill="rgb(33, 33, 33)" stroke="none" stroke-width="1px">0.2</text><text x="0" y="251.33333333333331" dx="0em" dy="0.3em" style="text-anchor: end; visibility: inherit; font-family: Roboto, sans-serif; font-size: 12px; font-weight: 200;" fill="rgb(33, 33, 33)" stroke="none" stroke-width="1px">0.4</text><text x="0" y="209.44444444444446" dx="0em" dy="0.3em" style="text-anchor: end; visibility: inherit; font-family: Roboto, sans-serif; font-size: 12px; font-weight: 200;" fill="rgb(33, 33, 33)" stroke="none" stroke-width="1px">0.6</text><text x="0" y="167.55555555555554" dx="0em" dy="0.3em" style="text-anchor: end; visibility: inherit; font-family: Roboto, sans-serif; font-size: 12px; font-weight: 200;" fill="rgb(33, 33, 33)" stroke="none" stroke-width="1px">0.8</text><text x="0" y="125.66666666666669" dx="0em" dy="0.3em" style="text-anchor: end; visibility: inherit; font-family: Roboto, sans-serif; font-size: 12px; font-weight: 200;" fill="rgb(33, 33, 33)" stroke="none" stroke-width="1px">1</text><text x="0" y="83.77777777777781" dx="0em" dy="0.3em" style="text-anchor: end; visibility: inherit; font-family: Roboto, sans-serif; font-size: 12px; font-weight: 200;" fill="rgb(33, 33, 33)" stroke="none" stroke-width="1px">1.2</text><text x="0" y="41.88888888888891" dx="0em" dy="0.3em" style="text-anchor: end; visibility: inherit; font-family: Roboto, sans-serif; font-size: 12px; font-weight: 200;" fill="rgb(33, 33, 33)" stroke="none" stroke-width="1px">1.4</text><text x="0" y="0" dx="0em" dy="0.3em" style="text-anchor: end; visibility: hidden; font-family: Roboto, sans-serif; font-size: 12px; font-weight: 200;" fill="rgb(33, 33, 33)" stroke="none" stroke-width="1px">1.6</text></g><line x1="51.5625" y1="0" x2="51.5625" y2="377" fill="rgb(0, 0, 0)" stroke="rgb(204, 204, 204)" stroke-width="1px"></line></g></g><g transform="translate(51, 0)" clip-path="url(#clip_0)"><clipPath id="clip_0"><rect width="1246" height="377"></rect></clipPath><g><g><g><line x1="0" y1="0" x2="0" y2="377" fill="rgb(0, 0, 0)" stroke="rgb(66, 66, 66)" stroke-width="1px" opacity="0.25"></line><line x1="138.49305555555554" y1="0" x2="138.49305555555554" y2="377" fill="rgb(0, 0, 0)" stroke="rgb(66, 66, 66)" stroke-width="1px" opacity="0.25"></line><line x1="276.9861111111111" y1="0" x2="276.9861111111111" y2="377" fill="rgb(0, 0, 0)" stroke="rgb(66, 66, 66)" stroke-width="1px" opacity="0.25"></line><line x1="415.47916666666663" y1="0" x2="415.47916666666663" y2="377" fill="rgb(0, 0, 0)" stroke="rgb(66, 66, 66)" stroke-width="1px" opacity="0.25"></line><line x1="553.9722222222222" y1="0" x2="553.9722222222222" y2="377" fill="rgb(0, 0, 0)" stroke="rgb(66, 66, 66)" stroke-width="1px" opacity="0.25"></line><line x1="692.4652777777778" y1="0" x2="692.4652777777778" y2="377" fill="rgb(0, 0, 0)" stroke="rgb(66, 66, 66)" stroke-width="1px" opacity="0.25"></line><line x1="830.9583333333333" y1="0" x2="830.9583333333333" y2="377" fill="rgb(0, 0, 0)" stroke="rgb(66, 66, 66)" stroke-width="1px" opacity="0.25"></line><line x1="969.4513888888889" y1="0" x2="969.4513888888889" y2="377" fill="rgb(0, 0, 0)" stroke="rgb(66, 66, 66)" stroke-width="1px" opacity="0.25"></line><line x1="1107.9444444444443" y1="0" x2="1107.9444444444443" y2="377" fill="rgb(0, 0, 0)" stroke="rgb(66, 66, 66)" stroke-width="1px" opacity="0.25"></line><line x1="1246.4375" y1="0" x2="1246.4375" y2="377" fill="rgb(0, 0, 0)" stroke="rgb(66, 66, 66)" stroke-width="1px" opacity="0.25"></line></g><g><line x1="0" y1="377" x2="1246.4375" y2="377" fill="rgb(0, 0, 0)" stroke="rgb(66, 66, 66)" stroke-width="1px" opacity="0.25"></line><line x1="0" y1="335.1111111111111" x2="1246.4375" y2="335.1111111111111" fill="rgb(0, 0, 0)" stroke="rgb(66, 66, 66)" stroke-width="1px" opacity="0.25"></line><line x1="0" y1="293.22222222222223" x2="1246.4375" y2="293.22222222222223" fill="rgb(0, 0, 0)" stroke="rgb(66, 66, 66)" stroke-width="1px" opacity="0.25"></line><line x1="0" y1="251.33333333333331" x2="1246.4375" y2="251.33333333333331" fill="rgb(0, 0, 0)" stroke="rgb(66, 66, 66)" stroke-width="1px" opacity="0.25"></line><line x1="0" y1="209.44444444444446" x2="1246.4375" y2="209.44444444444446" fill="rgb(0, 0, 0)" stroke="rgb(66, 66, 66)" stroke-width="1px" opacity="0.25"></line><line x1="0" y1="167.55555555555554" x2="1246.4375" y2="167.55555555555554" fill="rgb(0, 0, 0)" stroke="rgb(66, 66, 66)" stroke-width="1px" opacity="0.25"></line><line x1="0" y1="125.66666666666669" x2="1246.4375" y2="125.66666666666669" fill="rgb(0, 0, 0)" stroke="rgb(66, 66, 66)" stroke-width="1px" opacity="0.25"></line><line x1="0" y1="83.77777777777781" x2="1246.4375" y2="83.77777777777781" fill="rgb(0, 0, 0)" stroke="rgb(66, 66, 66)" stroke-width="1px" opacity="0.25"></line><line x1="0" y1="41.88888888888891" x2="1246.4375" y2="41.88888888888891" fill="rgb(0, 0, 0)" stroke="rgb(66, 66, 66)" stroke-width="1px" opacity="0.25"></line><line x1="0" y1="0" x2="1246.4375" y2="0" fill="rgb(0, 0, 0)" stroke="rgb(66, 66, 66)" stroke-width="1px" opacity="0.25"></line></g></g></g><g><g><line x1="0" y1="335.1111111111111" x2="1246.4375" y2="335.1111111111111" fill="rgb(0, 0, 0)" stroke="rgb(153, 153, 153)" stroke-width="1.5px"></line></g></g><g><g><line x1="138.49305555555554" y1="0" x2="138.49305555555554" y2="377" fill="rgb(0, 0, 0)" stroke="rgb(153, 153, 153)" stroke-width="1.5px"></line></g></g><g><g><g><g><g><path stroke="rgb(51, 187, 238)" stroke-width="2px" d="M141.95538194444444,-1.941473761524877L143.0633263888889,16.74561004255605L145.41770833333334,15.15271514046018L146.11017361111112,17.229318512459294L146.66414583333335,22.673224934597016L147.079625,12.710868569543122L147.77209027777778,25.051917542373744L147.91058333333334,22.987220153890412L149.01852777777776,10.967800893387968L149.8494861111111,3.939123092541014L150.68044444444445,3.1403269690542497L151.23441666666668,-4.790296266674977L162.17536805555557,-0.2266157511574367L169.2385138888889,13.616428062772151L170.48495138888887,9.183575228620564L171.31590972222224,22.88667972156258L171.59289583333333,29.00184787854484L172.008375,24.10336271264507L173.5317986111111,37.02750757371274L174.50125000000003,43.472180779957434L179.21001388888888,56.76321576927788L180.31795833333334,63.474815357722434L180.59494444444445,71.39166111342864L182.3953541666667,78.86618160724976L184.05727083333335,86.12960432378256L187.24261111111113,87.5978233656831L189.59699305555557,91.70504353721523L190.28945833333333,98.62130610401827L191.95137499999998,109.9077652741255L192.22836111111113,120.96704791184703L192.64384027777777,126.41634695881638L196.79863194444445,135.97554724012966L198.59904166666666,146.7100292085336L198.87602777777778,145.9010785876268L200.39945138888888,151.46948217762062L201.78438194444445,161.42320386815737L202.33835416666668,170.20143781080884L202.6153402777778,179.30550424306008L202.89232638888888,184.46981996832105L203.03081944444443,192.20815703732458L203.72328472222222,199.17142053887287L204.83122916666667,204.00687380274502L205.66218750000002,210.56808978423845L206.908625,216.20089815518423L207.46259722222223,217.9493291079109L209.26300694444444,219.0550223439708L211.75588194444444,223.99897994388502L213.4177986111111,228.20055574662527L215.49519444444445,230.1075223617359L217.29560416666666,234.5614491842515L217.98806944444445,233.04498431796858L220.75793055555556,234.51543230328377L220.89642361111112,237.1181267441445L225.74368055555556,242.10979857562063L227.68258333333333,238.9878124044283L231.42189583333334,242.5115451777277L235.43819444444443,241.64306718380075L238.20805555555557,246.82163788549684L239.316,251.60918269311077L240.56243750000002,255.93629816844L241.808875,259.4663590632236L242.36284722222223,263.89384959924L242.91681944444446,266.1505395173834L244.30175,266.6030642595354L247.7640763888889,267.5809757584115L249.5644861111111,270.9910625339087L251.91886805555555,272.20364340107966L260.2284513888889,274.1148418992404L260.50543749999997,273.3387945585811L261.3363958333333,274.8605251960169L261.6133819444445,275.24046949824145L269.78447222222223,278.50873516348304L274.35474305555556,279.30835869353905L277.4015902777778,278.1126542645449L282.5258333333333,277.0569105618309L283.63377777777777,277.78568011143255L285.4341875,276.553756735732L293.46678472222226,279.4363093848673L294.85171527777777,281.55127194105967L297.0676041666667,284.44071886817676L298.3140416666667,285.32545287344794L298.4525347222222,284.4390762770951L305.6541736111111,286.0710870517624L305.9311597222222,286.64625278031076L306.0696527777778,288.43980842278864L307.45458333333335,290.36363935345923L307.5930763888889,288.8666315722577L308.0085555555556,288.0054870122827L309.6704722222222,289.1432148586761L313.54827777777774,288.86038362455844L313.6867708333333,289.9943680024981L314.9332083333333,290.30710547183924L315.07170138888887,292.0453633381084L316.3181388888889,292.7406786465547L316.595125,287.97396517386323L317.01060416666667,289.56724160324046L317.98005555555557,291.02822678091945L318.94950694444447,292.253377654598L320.33443750000004,293.78232270358103L320.8884097222222,295.3682851955218L321.02690277777776,297.0571702722083L321.9963541666667,297.60985547786214L323.7967638888889,299.0142677477103L324.35073611111113,298.27051936533627L326.2896388888889,299.8340873541073L327.8130625,300.899097800996L328.5055277777778,302.0776172344799L329.0595,301.002284865476L330.4444305555556,301.2365021732963L331.27538888888887,302.2512674916258L332.93730555555555,302.0366395379817L333.07579861111117,303.5290302427115L337.3690833333333,300.33719193588445L340.69291666666663,301.15831017112686L341.8008611111111,302.34499302143564L344.1552430555555,302.18129521371725L346.37113194444447,299.83830249730204L346.509625,300.83990370347044L346.7866111111111,302.0454125208579L347.20209027777776,301.63531059832627L348.3100347222222,299.63010655068723L348.44852777777777,300.71145939584494L348.8640069444445,301.8727093019688L350.9414027777778,303.26811830697307L351.07989583333335,304.13360017618123L351.7723611111111,303.0971826332796L351.91085416666664,303.0797528735955L356.34263194444446,303.6341543606307L357.1735902777778,303.48725576751923L359.5279722222222,304.2355534063873L360.4974236111111,304.0352392218707L361.3283819444444,304.76025649193895L363.54427083333337,305.41127009845974L365.06769444444444,306.4570119118158L367.9760486111111,306.76308945691983L368.8070069444444,306.44270830654824L369.2224861111111,304.68749483342555L369.36097916666665,305.47676697801495L369.9149513888889,305.2060282537625L370.05344444444444,303.32811021365114L371.438375,302.88956275096876L372.26933333333335,303.390188559919L374.48522222222226,304.3642068209078L375.4546736111111,304.8684167985373L375.7316597222222,305.03102270922614L376.28563194444445,305.63779483349293L376.7011111111111,306.94142079513506L376.8396041666667,306.59262985020246L378.7785069444444,306.01414770491823L379.7479583333333,304.7285750334787L380.4404236111111,305.8348707417298L383.90274999999997,307.2287197303359L385.5646666666667,307.690995157185L391.9353472222223,308.50117817930106L395.5361666666667,308.8804855403862L397.3365763888889,308.9998223501045L399.4139722222222,308.6691294543075L399.82945138888886,308.38834975294816L402.46081944444444,305.4138805468267L403.0147916666666,304.6408216966138L406.4771180555556,305.9994494042488L407.3080763888889,305.4470148222788L408.2775277777778,306.7245457654661L409.1084861111111,305.998363563752L410.0779375,307.1412067649397L410.2164305555556,307.8540798298293L411.1858819444445,308.21066269145297L412.01684027777776,309.228411781098L412.43231944444443,309.96631155546856L413.81725,310.51933433880515L414.92519444444446,310.5428035461526L416.72560416666664,307.0851057057826L417.55656250000004,308.14920551830215L420.0494375,309.33794504270594L420.60340972222224,309.56834261892607L424.0657361111111,310.20050332366696L424.3427222222222,309.91934430290564L424.61970833333334,310.60095971890865L434.17572916666666,310.963691472929L435.5606597222222,310.48075843938443L436.11463194444445,310.7953846685355L437.3610694444444,311.3449820371872L439.16147916666665,311.3547759265486L440.6849027777778,311.9387038209656L444.70120138888893,311.59114017250147L446.6401041666667,311.50673084785785L449.1329791666667,310.9224765899846L450.2409236111111,311.2351521982287L453.70324999999997,311.57338068054173L454.1187291666667,312.2600405514575L457.0270833333333,312.7089272625701L458.96598611111114,313.3765600673632L459.65845138888886,311.5909390587659L463.53625694444446,310.1481525571147L464.9211875,311.2143430569387L465.8906388888889,311.5276305340925L468.79899305555557,312.2130505739254L472.26131944444444,312.6420622940012L472.95378472222217,313.4253334881611L473.50775694444445,313.96264258345565L473.78474305555557,314.46851317431555L473.9232361111111,314.8265988905171L477.1085763888889,315.4165676706875L477.9395347222222,315.9979277360093L481.6788472222222,316.6358139289913L482.64829861111116,316.9564334119302L486.80309027777776,317.25101896309707L488.46500694444444,317.4043169674601L489.01897916666667,315.2652356797288L489.1574722222222,315.57347847849513L492.6197986111111,316.22134027190685L493.45075694444444,316.64769236622084L493.8662361111111,316.7645551853379L494.00472916666666,316.8837022734924L494.5587013888889,317.28655866166304L495.38965972222223,317.8602028763666L496.3591111111111,318.0434860717851L496.6360972222222,317.8596074693741L497.1900694444445,318.0207233943799L498.57500000000005,317.8646576609083L500.2369166666667,312.234876245696L500.5139027777778,313.0556356891536L501.7603402777778,313.70143360313665L502.4528055555555,314.54352591922884L503.8377361111111,315.10607804597686L504.80718750000005,315.04513614516003L507.30006249999997,314.90749283898384L507.5770486111111,315.3552883403372L509.7929375,316.1691513214821L510.0699236111111,315.8880945398857L511.1778680555555,316.03538785426684L513.8092361111111,316.19459233673234L515.7481388888889,315.8973514964042L516.025125,316.5381506115732L517.2715625,316.8806229411384L518.3795069444444,317.5412107257618L518.6564930555555,317.6039289453815L522.1188194444444,315.27835823482116L522.6727916666666,315.31612908922403L523.6422430555556,315.93259751322427L527.6585416666667,316.0936133279881L529.5974444444445,316.49883947693223L529.7359375,317.05100896770705L531.2593611111112,316.94395533769136L531.5363472222223,317.12044039661083L531.8133333333334,317.54890433057665L532.0903194444444,318.3898119581263L534.5831944444444,318.935718468568L535.2756597222223,319.44021593232713L537.0760694444444,319.8673432664532L537.9070277777778,320.15971338261244L538.0455208333333,319.2398291025186L538.461,319.0913725299241L539.0149722222222,318.4058373419101L540.3999027777778,317.7548635192351L542.0618194444444,318.31816893420626L543.5852430555556,318.54234728800975L544.5546944444444,316.4257049816662L544.9701736111111,316.1373859080226L549.1249652777777,316.0673958196959L550.5098958333333,315.7880649275864L552.4487986111111,316.5147729599477L554.6646875,317.07666827739814L555.6341388888889,316.877707700256L555.911125,316.81099957312506L556.1881111111111,316.9459638939321L559.3734513888888,317.1050210751218L559.5119444444445,317.8426828542727L560.2044097222222,318.3480649065861L561.1738611111111,318.80331575428255L562.2818055555556,319.4453949801012L563.2512569444444,319.60826669697025L564.4976944444445,319.8702767235589L566.0211180555556,319.92992349921377L566.5750902777778,319.75418001792656L567.406048611111,320.29086346741923L567.9600208333334,319.63073880707475L568.7909791666666,318.23663219203087L568.9294722222222,318.1193532174861L569.0679652777777,318.04427235589156L571.8378263888889,318.3985475456844L573.7767291666667,318.39497850531L574.3307013888889,318.77307668827666L575.1616597222222,319.3331855920814L575.577138888889,319.74151021925746L576.4080972222222,318.40676442246433L576.6850833333333,318.29684579620493L577.2390555555555,318.66775572694934L578.347,319.28508811989457L580.5628888888889,319.20189273849974L580.9783680555555,319.5636222517912L581.9478194444445,319.85526086888046L587.0720625,320.0949917635012L594.6891805555555,318.82614366153445L595.3816458333333,318.7004660151315L595.6586319444444,318.8662220635192L596.9050694444444,318.81722212007753L598.5669861111111,319.2177967820403L601.0598611111111,319.435283293145L602.0293125,319.64971944755706L603.6912291666666,320.0747412542498L603.8297222222222,319.4550680233633L604.9376666666667,319.1661378411397L608.5384861111111,319.2210239424434L610.754375,319.58502596567547L611.8623194444444,319.47280711877045L614.2167013888889,319.75967011184173L614.9091666666667,320.35290125622936L616.5710833333333,320.61918071748534L618.0945069444444,319.05937656747244L622.2492986111112,319.42505457005046L622.9417638888889,319.6930695142319L627.6505277777777,320.3164361898304L627.7890208333334,320.86295263394265L628.7584722222223,320.53309899149497L629.7279236111111,320.7795636732724L632.7747708333334,320.99747334967026L633.3287430555555,321.0038326880836L634.0212083333333,321.4138100504394L634.4366875000001,321.03301767409243L636.9295625,321.166610859297L638.0375069444444,321.53149109397737L639.8379166666666,321.12104071800724L640.3918888888888,321.40086895922155L640.8073680555555,320.21061521905324L641.7768194444444,320.6896586836444L644.8236666666667,320.9444641371298L645.7931180555555,320.93698856863244L646.4855833333334,321.4980466610555L647.1780486111112,321.61560136264546L649.1169513888889,322.1116066686316L651.3328402777778,322.3379200197061L651.6098263888889,322.73045119848297L652.9947569444444,322.1766637578751L654.6566736111112,321.94370862427206L656.595576388889,321.63911700666176L657.1495486111112,321.7220014437576L657.4265347222223,321.59097101781657L658.5344791666666,321.93866801463355L658.8114652777778,322.3577648691565L659.7809166666666,322.2454858802899L660.8888611111112,321.9775046057332L661.0273541666667,321.9496909012351L665.1821458333333,322.0744228210977L667.9520069444444,321.78012244129974L669.4754305555556,322.1218808381404L670.8603611111112,322.32785169109934L671.4143333333333,322.55913140536654L672.799263888889,320.94467063996996L673.3532361111112,320.32535983145357L674.1841944444444,320.6699080675205L676.8155625,319.4006525167325L677.2310416666667,319.17348029008747L678.062,319.8687196139274L678.7544652777777,319.9916290284637L679.3084375000001,320.01199200540094L679.4469305555556,319.8247329725493L679.5854236111112,320.2870698319811L681.1088472222222,320.76046063358615L682.0782986111112,321.18721830208307L683.6017222222222,321.3924429524291L683.7402152777778,321.4549290375227L684.7096666666666,321.7568372313387L685.5406250000001,321.723327564158L686.0945972222222,321.9829853815663L688.310486111111,322.240051383216L688.7259652777778,322.50108609028365L689.4184305555556,322.6797565777106L690.6648680555555,322.8764817346706L691.2188402777778,321.8522000775987L691.6343194444444,322.219455252231L694.8196597222221,321.4704091854604L697.035548611111,321.1342931527366L697.4510277777778,321.2788748875754L698.5589722222222,321.47685254338694L698.6974652777778,321.2003372638599L701.7443125,321.53405845099445L702.4367777777778,321.4799208371459L703.6832152777778,321.76827742231245L707.1455416666666,322.2107186324898L707.5610208333333,321.57228315268753L708.3919791666667,320.590904588055L709.6384166666667,320.4891302629173L710.3308819444444,320.4906102996228L710.746361111111,320.25636727369744L711.438826388889,320.6668108298359L711.9927986111111,320.88339599616484L714.7626597222222,321.2803153321556L717.8095069444445,321.1441990709312L722.5182708333333,321.6731977725209L723.3492291666668,322.0821226710422L724.7341597222222,322.55630545269815L725.2881319444444,322.55091415279946L728.8889513888888,322.7438795372588L733.5977152777779,322.99516717416606L734.1516875,322.6937270258224L734.5671666666667,322.9660159251069L737.3370277777777,323.0726428123201L737.7525069444445,323.4256888313342L738.0294930555556,323.7391598788192L739.1374374999999,323.8792014125485L740.6608611111111,324.0550144674772L740.9378472222222,323.41350883264545L744.1231875,323.58471218386063L744.6771597222222,323.98610236104497L746.4775694444445,323.7235141346196L746.6160625,323.6334506642091L748.1394861111111,323.7279316529013L749.1089375,323.90099211854516L751.6018124999999,323.73494226782435L752.84825,324.0365262453945L753.4022222222222,324.00057496876923L754.9256458333333,323.76560703554696L759.0804375,323.6687658488568L759.6344097222222,323.81588760881425L760.4653680555556,324.1742348021935L760.8808472222222,323.9712968108134L763.5122152777777,323.13136255958995L763.7892013888888,323.5099917966142L764.3431736111111,323.9826482609302L765.1741319444445,324.00098299251704L766.2820763888889,323.94023162286487L767.8054999999999,324.38827806832256L768.2209791666667,324.5027703502011L769.4674166666666,324.4625117861852L769.7444027777777,324.6251335344229L770.4368680555555,323.86782326352017L770.9908402777777,324.28293685988774L772.6527569444445,324.12295603151364L773.8991944444444,324.20357035975536L779.8543958333333,323.4820164146507L781.3778194444445,323.6274574150647L781.6548055555555,323.55304544755865L782.2087777777778,323.69849486848074L783.5937083333334,322.91162531721517L784.0091875,322.3889673308563L786.5020625,322.4032197833071L787.6100069444445,322.5631284705794L787.7485,322.5069901126655L788.0254861111111,322.7382827764835L788.4409652777778,322.73185062802565L788.5794583333334,322.64658222261966L788.7179513888889,322.59517288402037L792.8727430555555,322.95971184965657L793.0112361111111,322.59949409786185L793.8421944444444,322.55187010168606L794.2576736111112,321.771253427805L794.3961666666667,322.240464288675L796.4735625000001,322.5952081372682L797.1660277777778,323.21497539485813L797.72,323.55788790401056L798.9664375,323.71998833023014L799.5204097222223,321.5261359386127L800.6283541666667,321.89213051976554L801.3208194444444,322.2615989523374L801.4593125,322.10090110756994L802.2902708333334,322.5246132846908L803.2597222222223,322.86699064610593L804.2291736111112,321.2923956182269L805.7525972222222,320.7322730168138L808.3839652777777,320.19830036848583L808.7994444444444,320.88708593610266L809.2149236111112,321.4124658998431L811.5693055555555,321.73526178783135L813.2312222222223,322.1410753127593L820.5713541666667,322.27146117736885L820.8483402777778,322.24145575967555L821.8177916666666,322.31449474393924L821.9562847222223,321.8543803919551L822.371763888889,322.43641657967476L823.8951875,322.1602371149418L828.8809375000001,322.36196510106134L829.0194305555556,322.4537124399381L830.4043611111111,322.80291832769865L830.8198402777778,322.09862012518187L831.3738125000001,309.3747339151265L831.9277847222222,293.37205111098774L835.9440833333333,281.64119806411003L836.7750416666667,278.7898237765839L838.575451388889,270.6888937604888L838.7139444444445,260.51874600462486L840.7913402777777,244.88507731060218L841.4838055555556,231.83309444166983L843.0072291666667,233.0640371653273L843.1457222222222,229.35450564534668L844.3921597222221,223.28715398457754L845.0846250000001,221.1599523665187L848.2699652777778,219.4481872402009L852.0092777777778,217.13517578846856L853.2557152777778,218.79758013228474L853.3942083333333,221.18316461130078L853.532701388889,223.89392538162957L856.579548611111,214.97183465213854L857.9644791666667,212.80557375802096L858.5184513888889,213.11706907751866L858.6569444444444,205.04360139185908L859.9033819444444,209.47640369011071L860.8728333333333,204.0556936044611L861.7037916666667,200.14894878758048L865.7200902777778,202.9181633513394L867.243513888889,203.11755826713676L868.2129652777778,197.1501942535669L868.4899513888889,196.86996809028955L869.043923611111,195.1587390650389L869.5978958333333,199.35833276864182L869.736388888889,202.76627807744123L870.2903611111111,198.19688312008404L871.1213194444445,199.18841555380826L873.7526875,203.74291556679125L875.4146041666667,203.46028382120642L876.7995347222222,200.7802789212128L877.3535069444445,202.78147132462743L877.492,208.07249862225157L878.8769305555555,210.34344312242342L881.7852847222222,211.9792915012178L883.4472013888889,205.04580318208897L885.3861041666668,205.77455427465443L885.5245972222222,211.02755000909414L886.3555555555556,207.1130176478822L887.3250069444445,205.24252023494898L887.4635,208.94936833124592L888.2944583333333,205.19681619831428L890.0948680555556,205.77332853712784L890.6488402777778,204.55170972722607L890.7873333333333,208.74869163754929L891.0643194444444,201.6512517209821L891.3413055555556,197.5990911045787L893.8341805555556,195.59329863804166L894.3881527777777,194.6267228013459L894.9421249999999,189.88789565813423L896.3270555555556,186.48813425396187L897.0195208333333,184.81186302612915L897.5734930555556,178.41604282489592L898.6814375,180.78920689830824L899.2354097222222,180.46029404492066L899.6508888888889,178.83813696042031L899.927875,179.7103601875432L900.4818472222222,181.24716481737312L900.7588333333333,179.62095457784528L902.42075,175.11186073390067L903.8056805555556,180.9051996856929L904.4981458333333,183.8394456605369L905.6060902777778,179.5057248657642L907.1295138888888,181.87711189130417L908.9299236111111,182.8806433989575L910.5918402777777,182.63137294385353L910.8688263888888,188.66182616634273L911.5612916666666,190.2374448400046L911.8382777777778,194.12430012048733L911.9767708333334,193.71192172856348L913.6386875,195.7982909821367L914.1926597222223,192.53826498639742L914.885125,191.13636354432003L919.1784097222222,196.18115024927144L919.870875,195.79889887536797L921.6712847222223,195.79453618071247L922.5022430555556,194.8188631668507L923.7486805555557,192.17256068470897L927.9034722222223,192.2576766170078L930.9503194444445,191.6962013298043L931.3657986111111,197.92293668327278L931.9197708333334,199.08407731204656L932.8892222222222,203.33324953439447L936.9055208333334,197.77505602394078L937.1825069444445,195.21059426679923L937.8749722222223,192.33396967913072L939.2599027777777,197.70702290109938L942.30675,199.63278807206459L942.9992152777778,195.95645707296518L943.8301736111111,194.85250361179686L949.3698958333334,199.9577820154147L950.4778402777778,202.7942956832238L954.771125,202.351174657217L955.3250972222223,207.31675491484162L956.5715347222223,205.00512995234095L956.7100277777778,203.12544557761302L958.5104375,197.4983076222856L958.7874236111112,196.46412933560066L960.8648194444444,194.5214607820399L962.3882430555556,194.83686559569L964.4656388888889,198.1148184739955L965.0196111111112,203.72977916112487L965.2965972222223,210.3391771541457L965.4350902777778,205.7298688738336L965.5735833333333,204.62247710670707L966.8200208333333,207.03658692762994L967.2355,211.8622877406045L968.204951388889,212.10122151262792L969.5898819444444,216.38265064740716L973.3291944444444,216.18384215260707L975.8220694444444,211.5056968663287L978.5919305555556,214.78527906480855L979.9768611111111,213.86383385884065L981.3617916666667,217.35318280038555L981.7772708333333,215.08695384159822L988.8404166666667,218.66682578043128L989.2558958333333,213.544699544215L989.671375,217.2581246772966L989.9483611111111,221.34404139862872L991.0563055555556,215.16162638998975L993.8261666666667,215.4130717373459L993.9646597222222,212.6620964335498L997.8424652777778,214.941891421696L1002.9667083333333,212.80321505656207L1003.105201388889,216.46790747160958L1004.905611111111,221.71809262030237L1009.0604027777778,222.66804272555208L1009.6143750000001,226.41750599674637L1010.0298541666667,222.3480135582509L1010.1683472222222,225.4297058483185L1015.8465624999999,226.7918122517335L1016.123548611111,226.07559598329985L1019.585875,226.02058957492378L1020.0013541666667,229.61002738309597L1020.555326388889,232.38349994069029L1021.6632708333333,232.38152602887303L1024.1561458333333,228.51677551199805L1024.7101180555555,232.02556971476605L1025.2640902777778,228.6853752027715L1026.9260069444445,225.3378336375039L1029.9728541666666,223.9252457471689L1032.6042222222222,222.53779095337293L1032.8812083333332,225.02010031915057L1033.8506597222222,223.92089116780355L1035.3740833333334,227.69013882843544L1035.7895624999999,223.6876447525466L1036.7590138888888,221.74605620495225L1038.0054513888888,224.29129750054386L1039.6673680555557,227.55170429555594L1040.9138055555557,227.91187717630146L1043.2681875,228.34643413248875L1045.2070902777778,227.98192249787402L1045.7610625,227.10651293964904L1046.3150347222222,225.07251252201314L1046.8690069444444,226.24448957924193L1047.0075,223.99008795208536L1050.4698263888888,220.43433154675182L1051.3007847222223,219.59620490441014L1051.7162638888888,221.69389441892685L1051.8547569444445,223.9302544032893L1055.8710555555556,221.72893272928147L1058.3639305555555,225.28922970110153L1059.8873541666667,227.65763604085336L1061.9647499999999,224.88590768667203L1062.9342013888888,222.97173195068507L1064.734611111111,220.7676365264048L1065.5655694444445,218.18303406087358L1066.8120069444444,222.59044501228266L1067.0889930555556,222.7792356726643L1067.9199513888889,227.1870446287998L1068.1969374999999,226.33118559683712L1068.8894027777778,226.3155473039707L1069.443375,224.25095279539363L1069.720361111111,222.13869499249387L1070.4128263888888,222.41450718640766L1072.4902222222222,224.70527802904775L1073.1826875,221.38758567507034L1075.1215902777778,224.03909703906788L1075.3985763888888,221.99367406251667L1075.8140555555556,226.26239629156686L1076.5065208333333,221.23127477213185L1076.6450138888888,219.56894958942556L1077.7529583333335,219.79453076896317L1078.1684375,218.48650888920503L1079.137888888889,218.93581533247067L1079.9688472222222,215.3629271164632L1081.3537777777779,214.5817252921582L1081.6307638888889,208.3177480548278L1090.3558263888888,208.95286762274844L1090.4943194444445,212.68184931991743L1093.2641805555554,213.51246866414712L1094.0951388888889,214.82093646199266L1095.0645902777778,210.89511393968516L1095.895548611111,211.77460560892894L1097.9729444444445,217.36589350525816L1098.1114375,215.09692399272302L1101.9892430555556,218.90651088199976L1102.5432152777778,211.2471885252235L1102.8202013888888,211.12590374572667L1104.066638888889,210.88906262389912L1106.0055416666667,216.30546841938087L1106.8365000000001,215.1760944408138L1108.0829375,213.39830746054838L1109.4678680555555,203.3371156903099L1109.6063611111113,194.69018709068905L1111.4067708333334,187.75325135049667L1112.9301944444444,185.7929692876169L1117.2234791666667,178.32632401596908L1117.6389583333332,173.11760673155743L1119.023888888889,178.55579152507087L1119.5778611111111,168.8570879882773L1121.5167638888888,162.74589057249523L1122.4862152777778,156.1401904914077L1123.7326527777777,152.61841145890742L1124.1481319444445,152.9788168229717L1125.9485416666666,155.2694793246902L1128.7184027777778,158.25200525060632L1129.5493611111112,156.15386536525574L1130.241826388889,144.94096258051513L1130.5188125,142.45744645935355L1131.76525,141.8210347780776L1133.4271666666666,137.21056125806967L1133.5656597222223,140.36624432188063L1134.258125,143.67358078694608L1135.9200416666667,147.12793414776587L1138.4129166666667,152.92314137155256L1138.689902777778,153.47958461725116L1142.706201388889,143.96164348582423L1144.6451041666667,151.70424416372055L1144.7835972222222,148.73759593106305L1144.922090277778,146.03132606382758L1148.6614027777778,146.99898253222358L1152.8161944444444,145.14981387108662L1155.4475625,143.54352487256946L1156.417013888889,132.0498714134175L1157.8019444444444,129.1698056669684L1157.9404375000001,128.4531994257681L1158.9098888888889,135.96221895526867L1160.4333125,141.46016051524228L1160.710298611111,144.75579197102687L1161.67975,137.68738310653296L1161.8182430555555,146.14019887775288L1162.7876944444445,137.96990706790294L1168.881388888889,143.23403310528144L1174.0056319444445,151.64694701344774L1174.8365902777778,159.70557076009376L1175.3905625,163.5440654952448L1175.667548611111,167.0467796716957L1178.8528888888889,149.61449475662243L1178.9913819444444,151.709170819779L1179.8223402777778,154.5238307661932L1180.2378194444445,152.96628154134615L1180.7917916666668,149.9942082872338L1181.2072708333333,149.09621836110568L1181.345763888889,157.02504045414L1182.1767222222222,161.5840914403419L1186.6085,158.31092338264898L1195.7490416666667,153.0091442192545L1195.8875347222222,158.97044738863457L1196.7184930555557,156.45402206230463L1198.7958888888888,161.52142259277363L1199.4883541666668,162.67875786848955L1201.2887638888888,162.49349312752264L1205.582048611111,157.00208015463375L1208.4904027777777,153.41283468344378L1209.3213611111112,156.73069098727126L1209.7368402777777,156.15989320195735L1210.2908125,163.34376129317667L1212.5067013888888,158.3608220052522L1213.060673611111,151.61353638665634L1214.7225902777777,150.11230062175713L1216.9384791666666,143.08285553485015L1218.7388888888888,139.3219891207951L1220.8162847222222,131.3033425708007L1224.1401180555556,129.2407618743957L1225.1095694444446,137.94998739794545L1225.3865555555556,143.04453473386334L1227.3254583333335,142.02546443320875L1228.8488819444444,144.01894283123178L1231.3417569444446,144.49440741473353L1232.7266875,149.3564396521117L1232.8651805555555,148.30884923445825L1233.2806597222223,148.69732852317372L1233.4191527777778,155.9133538270927L1234.1116180555557,154.0605057650701L1234.8040833333334,153.79445153716182L1235.6350416666667,150.6159633872173L1236.3275069444444,151.8121087897639L1237.4354513888889,153.02699413036598L1238.6818888888888,157.15910888558142L1239.5128472222223,153.1428034696022L1240.2053125,157.4793060235791L1240.3438055555555,153.62862927592985L1242.0057222222222,152.84227900207534L1243.3906527777776,151.35940054944933L1248.5148958333334,156.3297671581944" style="fill: none;" fill="none"></path></g></g></g></g><g opacity="0.2"><g><g><g><path stroke="rgb(51, 187, 238)" stroke-width="2px" d="M140.70894444444443,-4.699180218908513L140.98593055555554,102.5386649767558L141.95538194444444,31.06997983985479L143.0633263888889,97.81849189599357L145.41770833333334,7.4314631091224195L146.11017361111112,28.254744185341735L146.66414583333335,53.860792424943725L147.079625,-48.15750025378337L147.77209027777778,104.72241697046495L147.91058333333334,9.009622971216851L149.01852777777776,-73.82898889647593L158.57454861111108,-40.45847802691991L160.51345138888888,25.676776806513484L160.65194444444444,-112.09716839260531L160.7904375,9.488728615972763L161.0674236111111,138.53094909588498L162.17536805555557,108.24508810043335L169.2385138888889,140.15226566791534L170.48495138888887,-31.633261667357505L171.31590972222224,149.89644405576922L171.59289583333333,86.01946987046136L172.008375,-21.81582797898183L173.5317986111111,158.76957347657947L174.50125000000003,104.44602427217698L179.21001388888888,183.01076111528613L180.31795833333334,127.45527946949005L180.59494444444445,147.10678783390262L182.3953541666667,150.56125962734222L184.05727083333335,155.9853727022807L187.24261111111113,101.75243136617875L189.59699305555557,131.3878706826104L190.28945833333333,165.57657384872437L191.95137499999998,219.36618828773499L192.22836111111113,228.39661436610754L192.64384027777777,179.42869177129535L196.79863194444445,229.09443726804523L198.59904166666666,251.40435901615353L198.87602777777778,138.00264455212488L200.39945138888888,205.89245621363324L201.78438194444445,258.79416847229004L202.33835416666668,256.1437697278129L202.6153402777778,268.50417853064005L202.89232638888888,235.10225826501846L203.03081944444443,268.1235143774086L203.72328472222222,267.52104945315256L204.83122916666667,251.4943988687462L205.66218750000002,275.03330686688423L206.908625,271.5673249529468L207.46259722222223,235.1416198809942L209.26300694444444,229.93100580904218L211.75588194444444,272.64457610580655L213.4177986111111,269.55321615603236L215.49519444444445,248.88103350003564L217.29560416666666,278.41920480794374L217.98806944444445,218.10922570361032L220.75793055555556,249.00074124998514L220.89642361111112,262.76159590151576L225.74368055555556,291.29881741934355L227.68258333333333,208.2186740371916L231.42189583333334,277.2446669207679L235.43819444444443,233.08154550525876L238.20805555555557,297.877853113744L239.316,298.8148168706232L240.56243750000002,298.60582766267987L241.808875,294.2789555241664L242.36284722222223,307.5598587493102L242.91681944444446,288.40855687691106L244.30175,271.06664095322293L247.7640763888889,277.22734556264345L249.5644861111111,304.6306984937853L251.91886805555555,284.16598201460306L260.2284513888889,292.96994459960194L260.50543749999997,265.6823451552126L261.3363958333333,289.8743588626385L261.6133819444445,278.9892241756121L269.78447222222223,310.7562672744195L274.35474305555556,287.19833387103347L277.4015902777778,266.3142345415222L282.5258333333333,266.6393143004841L283.63377777777777,284.97698048584994L285.4341875,264.3972626725833L293.46678472222226,307.881486720509L294.85171527777777,302.4221254620287L297.0676041666667,312.95469716853563L298.3140416666667,294.05639011661214L298.4525347222222,275.6918368140856L305.6541736111111,302.1767988536093L305.9311597222222,292.3224004507065L306.0696527777778,306.1400410681963L307.45458333333335,309.3496684423751L307.5930763888889,274.0927664836248L308.0085555555556,279.50686125953996L309.6704722222222,300.3714982486433L313.54827777777774,286.06909679704245L313.6867708333333,301.18581118517454L314.9332083333333,293.393565720982L315.07170138888887,309.20059396823245L316.3181388888889,299.6029136975606L316.595125,240.92997458908292L317.01060416666667,305.29176266491413L317.98005555555557,305.4471617754963L318.94950694444447,304.34481493963136L320.33443750000004,308.8720405747493L320.8884097222222,311.02075817104844L321.02690277777776,313.72545391155614L321.9963541666667,303.0645356227954L323.7967638888889,312.8750158001979L324.35073611111113,290.93013777335483L326.2896388888889,315.26564878970385L327.8130625,311.4101797532704L328.5055277777778,313.7089830165108L329.0595,290.3893119162983L330.4444305555556,303.54810736907854L331.27538888888887,312.2664899610811L332.93730555555555,299.9183683991432L333.07579861111117,318.2581927321023L337.3690833333333,268.8353004786703L340.69291666666663,309.2623516321182L341.8008611111111,314.05698626654015L344.1552430555555,300.56567535466615L346.37113194444447,276.7140653464529L346.509625,310.72524019661876L346.7866111111111,313.9432255162133L347.20209027777776,297.5877937078476L348.3100347222222,279.83966228697034L348.44852777777777,311.383918389678L348.8640069444445,313.3337181334694L350.9414027777778,317.04017355458603L351.07989583333335,312.6755158876379L351.7723611111111,292.8682073685858L351.91085416666664,302.90772895680533L356.34263194444446,309.10584926025734L357.1735902777778,302.0374321424299L359.5279722222222,311.620918262336L360.4974236111111,302.05822713507547L361.3283819444444,311.91585573719607L363.54427083333337,311.8364864654011L365.06769444444444,316.7780218215452L367.9760486111111,309.7839398582776L368.8070069444444,303.2806874463956L369.2224861111111,287.3643099334505L369.36097916666665,313.2665362316701L369.9149513888889,302.5339558952385L370.05344444444444,284.7938828070958L371.438375,298.56129148602486L372.26933333333335,308.3311460564534L374.48522222222226,313.97734078930483L375.4546736111111,309.84474874867334L375.7316597222222,306.6358719666799L376.28563194444445,311.6263705889384L376.7011111111111,319.8076397122608L376.8396041666667,303.15021548668545L378.7785069444444,300.3047813706928L379.7479583333333,292.0405335790581L380.4404236111111,316.75352692438497L383.90274999999997,320.9854015567237L385.5646666666667,312.25345212800636L391.9353472222223,316.49733155386315L395.5361666666667,312.6240839378701L397.3365763888889,310.177624679274L399.4139722222222,305.4053345968326L399.82945138888886,305.6171763671769L402.46081944444444,276.05716454320486L403.0147916666666,297.01106738547486L406.4771180555556,319.408513488041L407.3080763888889,299.99472593930034L408.2775277777778,319.3332201970948L409.1084861111111,298.83126123746234L410.0779375,318.4205718818638L410.2164305555556,314.8898268143336L411.1858819444445,311.72998039921123L412.01684027777776,319.27315253598823L412.43231944444443,317.2490613311529L413.81725,315.9774286490348L414.92519444444446,310.77443441417483L416.72560416666664,272.95913196934595L417.55656250000004,318.65140784780186L420.0494375,321.0702871349123L420.60340972222224,311.8422664933735L424.0657361111111,316.4396545522743L424.3427222222222,307.14442704121274L424.61970833333334,317.3282074539198L434.17572916666666,314.54369614356096L435.5606597222222,305.714419407977L436.11463194444445,313.9006087332964L437.3610694444444,316.7692690740029L439.16147916666665,311.4514373557435L440.6849027777778,317.7018182252844L444.70120138888893,308.16083809402255L446.6401041666667,310.6736475171314L449.1329791666667,305.1561411122481L450.2409236111111,314.3211244940758L453.70324999999997,314.91154873371124L454.1187291666667,319.03707490861416L457.0270833333333,317.1392439206441L458.96598611111114,319.96580555869474L459.65845138888886,293.9676361017757L463.53625694444446,295.90847711430655L464.9211875,321.7371797089775L465.8906388888889,314.6196417162816L468.79899305555557,318.9778483476904L472.26131944444444,316.87622143824893L472.95378472222217,321.15587961177033L473.50775694444445,319.2656497350997L473.78474305555557,319.46123595701323L473.9232361111111,318.3607492165433L477.1085763888889,321.239303017656L477.9395347222222,321.735698810882L481.6788472222222,322.93147330731153L482.64829861111116,320.1208083066675L486.80309027777776,320.1584502706925L488.46500694444444,318.91730161839064L489.01897916666667,294.1534334156248L489.1574722222222,318.61570088234214L492.6197986111111,322.61545449122787L493.45075694444444,320.8556021650632L493.8662361111111,317.91794039971296L494.00472916666666,318.0596322301361L494.5587013888889,321.2625760568513L495.38965972222223,323.52182186353537L496.3591111111111,319.85241152180566L496.6360972222222,316.04480561117333L497.1900694444445,319.6108675234848L498.57500000000005,316.3243567264742L500.2369166666667,256.67138141724797L500.5139027777778,321.15617454300326L501.7603402777778,320.07517823163005L502.4528055555555,322.85461095099646L503.8377361111111,320.6582229485114L504.80718750000005,314.4436660806338L507.30006249999997,313.54901325205964L507.5770486111111,319.774835244649L509.7929375,324.20162509133417L510.0699236111111,313.114186304311L511.1778680555555,317.48910882655116L513.8092361111111,317.76587135924234L515.7481388888889,312.9637136376566L516.025125,322.8625592696998L517.2715625,320.2606759327981L518.3795069444444,324.06092494767574L518.6564930555555,318.2229305042161L522.1188194444444,292.32598643998307L522.6727916666666,315.6889110000597L523.6422430555556,322.0168728282054L527.6585416666667,317.6827694127957L529.5974444444445,320.4982453816467L529.7359375,322.50068176786107L531.2593611111112,315.88738255451125L531.5363472222223,318.86227119548454L531.8133333333334,321.7776570700937L532.0903194444444,326.6892046299246L534.5831944444444,324.32357837590905L535.2756597222223,324.4193865528537L537.0760694444444,324.0829043467012L537.9070277777778,323.0452793116371L538.0455208333333,310.1609712077512L538.461,317.62617070476216L539.0149722222222,311.63990309503345L540.3999027777778,311.33003492156666L542.0618194444444,323.8777484645446L543.5852430555556,320.7548901711901L544.5546944444444,295.5353656974104L544.9701736111111,313.29180200729104L549.1249652777777,315.3766240783864L550.5098958333333,313.0311904706889L552.4487986111111,323.68706527931823L554.6646875,322.6223307583067L555.6341388888889,314.9140533084671L555.911125,316.15261936187744L556.1881111111111,318.27800306015547L559.3734513888888,318.67484629816477L559.5119444444445,325.12308389196795L560.2044097222222,323.33596603158446L561.1738611111111,323.29644368588924L562.2818055555556,325.7824377740423L563.2512569444444,321.21573972867594L564.4976944444445,322.4562017685837L566.0211180555556,320.51861124154595L566.5750902777778,318.01966826783286L567.406048611111,325.587695773277L567.9600208333334,313.1155954202016L568.7909791666666,304.477406034867L568.9294722222222,316.9618607295884L569.0679652777777,317.30325689580707L571.8378263888889,321.8950896362464L573.7767291666667,318.3597536285718L574.3307013888889,322.5047413636413L575.1616597222222,324.8612169470224L575.577138888889,323.7714967570371L576.4080972222222,305.23340373237926L576.6850833333333,317.2119967457321L577.2390555555555,322.3284754782087L578.347,325.3778904328744L580.5628888888889,318.38079049603806L580.9783680555555,323.1337352742751L581.9478194444445,322.73360722015303L587.0720625,322.46103146258326L594.6891805555555,306.3031645682123L595.3816458333333,317.4600822875897L595.6586319444444,320.5021621932586L596.9050694444444,318.3336139826311L598.5669861111111,323.1712945327163L601.0598611111111,321.5817805983954L602.0293125,321.76611105849344L603.6912291666666,324.26952169421645L603.8297222222222,313.3391626576583L604.9376666666667,316.31452256441116L608.5384861111111,319.76272589878903L610.754375,323.1775676732262L611.8623194444444,318.3652558906211L614.2167013888889,322.5908831304146L614.9091666666667,326.2078347247508L616.5710833333333,323.24724322640236L618.0945069444444,303.6647877825631L622.2492986111112,323.03413746505976L622.9417638888889,322.3382604850663L627.6505277777777,326.46879424899817L627.7890208333334,326.25683232148486L628.7584722222223,317.2775869551632L629.7279236111111,323.2120629238586L632.7747708333334,323.1481471123795L633.3287430555555,321.06659659329387L634.0212083333333,325.46010836586356L634.4366875000001,317.27476248145103L636.9295625,322.4851175132725L638.0375069444444,325.1327003666924L639.8379166666666,317.0700739638673L640.3918888888888,324.16265203555423L640.8073680555555,308.46332830521794L641.7768194444444,325.41760939939155L644.8236666666667,323.4592831780513L645.7931180555555,320.8632079578108L646.4855833333334,327.0354460949699L647.1780486111112,322.77581515659887L649.1169513888889,327.00696338423427L651.3328402777778,324.57153439770144L651.6098263888889,326.60456326728064L652.9947569444444,316.71102249622345L654.6566736111112,319.64454274045096L656.595576388889,318.6329301719864L657.1495486111112,322.54003480118183L657.4265347222223,320.2977576835288L658.5344791666666,325.3702862006095L658.8114652777778,326.494068607274L659.7809166666666,321.13734107712907L660.8888611111112,319.3326459394561L661.0273541666667,321.6751817307538L665.1821458333333,323.30547263887195L667.9520069444444,318.87550564938124L669.4754305555556,325.4948876243499L670.8603611111112,324.36069445725946L671.4143333333333,324.84176162878674L672.799263888889,305.01064482496844L673.3532361111112,314.21303141696586L674.1841944444444,324.0704493539201L676.8155625,306.87365208069485L677.2310416666667,316.9313891836339L678.062,326.73042946226064L678.7544652777777,321.20469151106147L679.3084375000001,320.212965734303L679.4469305555556,317.9765677352746L679.5854236111112,324.85013361854686L681.1088472222222,325.43262202334074L682.0782986111112,325.39913094333474L683.6017222222222,323.4179210232364L683.7402152777778,322.07163952953283L684.7096666666666,324.7365398398704L685.5406250000001,321.3926017185052L686.0945972222222,324.5456951446831L688.310486111111,324.7771810516715L688.7259652777778,325.07738515569105L689.4184305555556,324.4431566057934L690.6648680555555,324.81807350118953L691.2188402777778,311.74298546214897L691.6343194444444,325.84410414968926L694.8196597222221,314.0776501786378L697.035548611111,317.8169740471575L697.4510277777778,322.70583374881085L698.5589722222222,323.43080592900515L698.6974652777778,318.4712516789635L701.7443125,324.8277414718436L702.4367777777778,320.94560612655346L703.6832152777778,324.6142315454781L707.1455416666666,326.57742101119624L707.5610208333333,315.27120254768266L708.3919791666667,310.9051248414649L709.6384166666667,319.48466192351447L710.3308819444444,320.5052176184124L710.746361111111,317.94449045260745L711.438826388889,324.717710275203L711.9927986111111,323.0209974203673L714.7626597222222,325.1977366047601L717.8095069444445,319.8007907536295L722.5182708333333,326.8941849577758L723.3492291666668,326.11803362601336L724.7341597222222,327.2362833412157L725.2881319444444,322.4977043668429L728.8889513888888,324.6483639838795L733.5977152777779,325.4752668949465L734.1516875,319.7186438226038L734.5671666666667,325.65338897456724L737.3370277777777,324.1250038295984L737.7525069444445,326.91009954073365L738.0294930555556,326.8329828257362L739.1374374999999,325.26135046283406L740.6608611111111,325.79021287916436L740.9378472222222,317.08212713234957L744.1231875,325.2744148241149L744.6771597222222,327.9476488923861L746.4775694444445,321.13188250859577L746.6160625,322.7445633692874L748.1394861111111,324.6604179326031L749.1089375,325.6090236707694L751.6018124999999,322.0961024367975L752.84825,327.0130289805432L753.4022222222222,323.64575149946745L754.9256458333333,321.446575694614L759.0804375,322.7129854410887L759.6344097222222,325.2679154136115L760.4653680555556,327.71096579771904L760.8808472222222,321.9683870698015L763.5122152777777,314.8415766888195L763.7892013888888,327.24689774463576L764.3431736111111,328.6475620609191L765.1741319444445,324.18193882165684L766.2820763888889,323.3406420180367L767.8054999999999,328.81030168218746L768.2209791666667,325.6327593930894L769.4674166666666,324.0651772630711L769.7444027777777,326.23013948442207L770.4368680555555,316.39350015504493L770.9908402777777,328.37992757186294L772.6527569444445,322.5440148123437L773.8991944444444,324.99919872979325L779.8543958333333,316.360592695574L781.3778194444445,325.06289685393375L781.6548055555555,322.8186316813032L782.2087777777778,325.13401741410297L783.5937083333334,315.1455649634202L784.0091875,317.23056024809677L786.5020625,322.5438852922784L787.6100069444445,324.1413576884402L787.7485,321.95292892803747L788.0254861111111,325.02104080633984L788.4409652777778,322.6683681193325L788.5794583333334,321.8050201344821L788.7179513888889,322.08778506393236L792.8727430555555,326.55755294528274L793.0112361111111,319.0443015040623L793.8421944444444,322.0818419655164L794.2576736111112,314.0669062551525L794.3961666666667,326.87137148073975L796.4735625000001,326.09637568642694L797.1660277777778,329.33180876324576L797.72,326.9422852769494L798.9664375,325.3198490585718L799.5204097222223,299.8737666822142L800.6283541666667,325.50433790766533L801.3208194444444,325.90809174337323L801.4593125,320.5148832483424L802.2902708333334,326.70646825018855L803.2597222222223,326.2461063435508L804.2291736111112,305.7518272995949L805.7525972222222,315.2041064724326L808.3839652777777,314.92822249150936L808.7994444444444,327.6851000164946L809.2149236111112,326.59773771589L811.5693055555555,324.92111685623723L813.2312222222223,326.14627836313514L820.5713541666667,323.55831297155885L820.8483402777778,321.9453153328763L821.8177916666666,323.03535776254205L821.9562847222223,317.31325178758965L822.371763888889,328.1808606932561L823.8951875,319.4344658760561L828.8809375000001,324.3529326162404L829.0194305555556,323.3592187845045L830.4043611111111,326.24942861124873L830.8198402777778,315.1475030829509L831.3738125000001,183.7955091463195L831.9277847222222,135.43252952231302L835.9440833333333,165.86277886231744L836.7750416666667,250.6479992866516L838.575451388889,190.73623664511575L838.7139444444445,160.14380945762002L840.7913402777777,90.58756454785667L841.4838055555556,103.01569830046759L843.0072291666667,245.2129066553381L843.1457222222222,192.74304238292905L844.3921597222221,163.40503107176886L845.0846250000001,200.1653972665469L848.2699652777778,202.55380968915097L852.0092777777778,194.30675841702356L853.2557152777778,235.2047882212533L853.3942083333333,244.72784620854588L853.532701388889,250.64795559313563L856.579548611111,126.91467832194434L857.9644791666667,191.42552058564297L858.5184513888889,216.19139244821338L858.6569444444444,125.36198553774095L859.9033819444444,253.22623506850664L860.8728333333333,150.55564188957214L861.7037916666667,161.59107602967157L865.7200902777778,230.24910708930759L867.243513888889,205.08549939261547L868.2129652777778,138.25490594572494L868.4899513888889,194.10425769620474L869.043923611111,178.26965259843405L869.5978958333333,240.80649671289655L869.736388888889,236.40121655993994L870.2903611111111,153.0989415844282L871.1213194444445,208.974409573608L873.7526875,248.69385047753656L875.4146041666667,200.67083137565191L876.7995347222222,174.3297957777977L877.3535069444445,222.53237026267584L877.492,260.2926376031505L878.8769305555555,232.75667797194592L881.7852847222222,228.12440376149289L883.4472013888889,136.61528803242578L885.3861041666668,212.9670107099745L885.5245972222222,262.8723339968258L886.3555555555556,168.47828521331155L887.3250069444445,186.781524029043L887.4635,245.53434736861124L888.2944583333333,168.16075819068487L890.0948680555556,211.46325466367932L890.6488402777778,192.4948632121086L890.7873333333333,250.17107831769522L891.0643194444444,131.60260558790634L891.3413055555556,157.60602762964038L893.8341805555556,175.79699907700223L894.3881527777777,185.08703954352274L894.9421249999999,143.11773211426208L896.3270555555556,152.93396735191345L897.0195208333333,168.2677948209975L897.5734930555556,115.29207823011613L898.6814375,204.21130449242065L899.2354097222222,177.2140671875742L899.6508888888889,162.82815182209015L899.927875,188.3188242117564L900.4818472222222,196.4147583378686L900.7588333333333,163.57096656163537L902.42075,130.6090649697516L903.8056805555556,238.0829362968604L904.4981458333333,212.79917767312793L905.6060902777778,136.73378484778937L907.1295138888888,205.2816707955467L908.9299236111111,192.78506306144925L910.5918402777777,180.17118193043603L910.8688263888888,248.1797775361273L911.5612916666666,205.78811609745026L911.8382777777778,232.48587180177373L911.9767708333334,189.6419262952275L913.6386875,216.3898483978378L914.1926597222223,160.36322581105765L914.885125,177.3002058333821L919.1784097222222,245.97100164161793L919.870875,192.02624401119022L921.6712847222223,195.75147828128604L922.5022430555556,185.1893947256936L923.7486805555557,166.05470575226678L927.9034722222223,193.09773386187027L930.9503194444445,186.15468436479568L931.3657986111111,259.37810734576647L931.9197708333334,210.54403047429196L932.8892222222222,245.27073190278475L936.9055208333334,142.9181026816368L937.1825069444445,169.90047170718515L937.8749722222223,163.94293570518494L939.2599027777777,250.73672209183377L942.30675,218.63925302028656L942.9992152777778,159.6726685166359L943.8301736111111,183.9569629298316L949.3698958333334,250.34466017285985L950.4778402777778,230.7894523176882L954.771125,197.97776279184552L955.3250972222223,256.3248731096586L956.5715347222223,182.1903966267904L956.7100277777778,184.57377805312478L958.5104375,141.96090258492364L958.7874236111112,186.25723928875396L960.8648194444444,175.34816679689624L962.3882430555556,197.94977397388885L964.4656388888889,230.46678818596735L965.0196111111112,259.14699985583627L965.2965972222223,275.5710616939598L965.4350902777778,160.2380001942317L965.5735833333333,193.69300183984967L966.8200208333333,230.8628012471729L967.2355,259.4898566338751L968.204951388889,214.4593939582507L969.5898819444444,258.6384947167503L973.3291944444444,214.221688747406L975.8220694444444,165.33443686697223L978.5919305555556,247.15332945850162L979.9768611111111,204.7695703042878L981.3617916666667,251.7915397451984L981.7772708333333,192.72025933530597L988.8404166666667,253.99860535065335L989.2558958333333,162.99154060416754L989.671375,253.90801620814534L989.9483611111111,261.67026295264566L991.0563055555556,154.1438782612483L993.8261666666667,217.89472799168698L993.9646597222222,185.5111662613021L997.8424652777778,237.4424767394861L1002.9667083333333,191.6954091919793L1003.105201388889,252.6368282636007L1004.905611111111,273.5351373487049L1009.0604027777778,232.04363724258212L1009.6143750000001,263.4230782820119L1010.0298541666667,182.18389253483878L1010.1683472222222,255.8446688850721L1015.8465624999999,240.23521023326452L1016.123548611111,219.00685281223724L1019.585875,225.47770024008224L1020.0013541666667,265.0362179246214L1020.555326388889,259.7564682265123L1021.6632708333333,232.36204437745943L1024.1561458333333,190.37336823675366L1024.7101180555555,266.65584293338986L1025.2640902777778,195.71910762786865L1026.9260069444445,192.29905384116705L1029.9728541666666,209.9836174382104L1032.6042222222222,208.84421537982098L1032.8812083333332,249.519414494435L1033.8506597222222,213.0721747610304L1035.3740833333334,264.89097443554135L1035.7895624999999,184.18476843833923L1036.7590138888888,202.5834214091301L1038.0054513888888,249.41172246138257L1039.6673680555557,259.7305017941528L1040.9138055555557,231.46662691235542L1043.2681875,232.63532235225045L1045.2070902777778,224.38435114754571L1045.7610625,218.46660121281946L1046.3150347222222,204.99781274795532L1046.8690069444444,237.8113935788473L1047.0075,201.74012406667077L1050.4698263888888,185.3405618071556L1051.3007847222223,211.32425934738586L1051.7162638888888,242.39717788828744L1051.8547569444445,246.00215511851843L1055.8710555555556,200.00284490320416L1058.3639305555555,260.42781285776033L1059.8873541666667,251.03277687231702L1061.9647499999999,197.53015393018723L1062.9342013888888,204.07964968681335L1064.734611111111,199.01417299111688L1065.5655694444445,192.67413146628274L1066.8120069444444,266.0896748370594L1067.0889930555556,224.64251740773523L1067.9199513888889,270.6902025871807L1068.1969374999999,217.88422906398773L1068.8894027777778,226.16120415263708L1069.443375,203.87430264552438L1069.720361111111,201.29162885083093L1070.4128263888888,225.1366536219915L1072.4902222222222,247.31419025858247L1073.1826875,188.64340461624994L1075.1215902777778,250.20836137069597L1075.3985763888888,201.80623859829376L1075.8140555555556,268.39282872610625L1076.5065208333333,171.57629281944702L1076.6450138888888,203.16252278619345L1077.7529583333335,222.02091893222598L1078.1684375,205.57690164115695L1079.137888888889,223.3702745768759L1079.9688472222222,180.10007385412854L1081.3537777777779,206.8716029392349L1081.6307638888889,146.49501619074084L1090.3558263888888,215.2212216191822L1090.4943194444445,249.4852773745855L1093.2641805555554,221.7103204528491L1094.0951388888889,227.73494472768573L1095.0645902777778,172.1489525238673L1095.895548611111,220.45480599668292L1097.9729444444445,272.54947404728995L1098.1114375,192.70318141248492L1101.9892430555556,256.50547713703577L1102.5432152777778,135.65300700399615L1102.8202013888888,209.9288757046064L1104.066638888889,208.55154372586145L1106.0055416666667,269.7630386617449L1106.8365000000001,204.02966430452136L1108.0829375,195.85232291618985L1109.4678680555555,104.03752734926013L1109.6063611111113,109.3487613466051L1111.4067708333334,119.28871165381537L1112.9301944444444,166.44583762354324L1117.2234791666667,104.63378155231476L1117.6389583333332,121.70983179410301L1119.023888888889,232.22831100887726L1119.5778611111111,73.13510090774962L1121.5167638888888,102.43102912108105L1122.4862152777778,90.94480273458696L1123.7326527777777,117.85998361640509L1124.1481319444445,156.53586106830176L1125.9485416666666,177.87732227643335L1128.7184027777778,187.68823938899573L1129.5493611111112,135.44613693157834L1130.241826388889,34.27448727024927L1130.5188125,117.94622213310667L1131.76525,135.53992818461523L1133.4271666666666,91.70719216929545L1133.5656597222223,171.5114641255803L1134.258125,176.31555372476578L1135.9200416666667,181.22089992629157L1138.4129166666667,210.11931701501214L1138.689902777778,158.97143752045105L1142.706201388889,50.02370275391473L1144.6451041666667,228.1203465064367L1144.7835972222222,119.45806772179075L1144.922090277778,119.32161911328636L1148.6614027777778,156.54933115508823L1152.8161944444444,126.89932317203947L1155.4475625,127.69015084372626L1156.417013888889,18.61250901222229L1157.8019444444444,100.74480895201367L1157.9404375000001,121.38060739305286L1158.9098888888889,210.07297692033978L1160.4333125,195.7224533028073L1160.710298611111,177.28224155637957L1161.67975,67.92526083522375L1161.8182430555555,229.56581540240182L1162.7876944444445,57.33267920547063L1168.881388888889,195.18866834375592L1174.0056319444445,234.6787494983938L1174.8365902777778,239.24068339003458L1175.3905625,201.4283396204313L1175.667548611111,201.6170456740591L1178.8528888888889,-22.434578100840223L1178.9913819444444,172.38271283441122L1179.8223402777778,182.3033006721073L1180.2378194444445,137.59394788742065L1180.7917916666668,120.66113747490778L1181.2072708333333,140.23344822062387L1181.345763888889,235.27906719843548L1182.1767222222222,206.57994247807397L1186.6085,126.00617776976691L1195.7490416666667,100.68288899792566L1195.8875347222222,217.8059177994728L1196.7184930555557,131.61799818939636L1198.7958888888888,211.53446261088055L1199.4883541666668,174.10115385055542L1201.2887638888888,160.66501068406637L1205.582048611111,102.80422168307837L1208.4904027777777,117.98854242430792L1209.3213611111112,189.4764901598295L1209.7368402777777,150.52636723385916L1210.2908125,234.24541593260238L1212.5067013888888,109.18137772878013L1213.060673611111,85.02076093355817L1214.7225902777777,135.29575633340414L1216.9384791666666,73.70528880755109L1218.7388888888888,102.20387277338243L1220.8162847222222,52.16278749042089L1224.1401180555556,108.88398717509375L1225.1095694444446,223.90625669558847L1225.3865555555556,193.32550191879272L1227.3254583333335,131.9676836397913L1228.8488819444444,163.69370788998077L1231.3417569444446,149.18703613016345L1232.7266875,197.3425839079751L1232.8651805555555,137.9695872863134L1233.2806597222223,152.53145019875632L1233.4191527777778,227.1323861744669L1234.1116180555557,135.77370097902087L1234.8040833333334,151.16861198345822L1235.6350416666667,119.24566729863487L1236.3275069444444,163.6175438496802L1237.4354513888889,165.01738423109055L1238.6818888888888,197.94128494792517L1239.5128472222223,113.50361523363328L1240.2053125,200.27870079543857L1240.3438055555555,115.62412398391302L1242.0057222222222,145.08134369055432L1243.3906527777776,136.72403495179282L1248.5148958333334,205.38512455754812" style="fill: none;" fill="none"></path></g></g></g></g></g></g><g transform="translate(51, 377)" clip-path="url(#clip_1)"><clipPath id="clip_1"><rect width="1246" height="23"></rect></clipPath><g><g><line x1="0" y1="0" x2="0" y2="5" style="visibility: inherit;" fill="rgb(0, 0, 0)" stroke="rgb(204, 204, 204)" stroke-width="1px"></line><line x1="138.49305555555554" y1="0" x2="138.49305555555554" y2="5" style="visibility: inherit;" fill="rgb(0, 0, 0)" stroke="rgb(204, 204, 204)" stroke-width="1px"></line><line x1="276.9861111111111" y1="0" x2="276.9861111111111" y2="5" style="visibility: inherit;" fill="rgb(0, 0, 0)" stroke="rgb(204, 204, 204)" stroke-width="1px"></line><line x1="415.47916666666663" y1="0" x2="415.47916666666663" y2="5" style="visibility: inherit;" fill="rgb(0, 0, 0)" stroke="rgb(204, 204, 204)" stroke-width="1px"></line><line x1="553.9722222222222" y1="0" x2="553.9722222222222" y2="5" style="visibility: inherit;" fill="rgb(0, 0, 0)" stroke="rgb(204, 204, 204)" stroke-width="1px"></line><line x1="692.4652777777778" y1="0" x2="692.4652777777778" y2="5" style="visibility: inherit;" fill="rgb(0, 0, 0)" stroke="rgb(204, 204, 204)" stroke-width="1px"></line><line x1="830.9583333333333" y1="0" x2="830.9583333333333" y2="5" style="visibility: inherit;" fill="rgb(0, 0, 0)" stroke="rgb(204, 204, 204)" stroke-width="1px"></line><line x1="969.4513888888889" y1="0" x2="969.4513888888889" y2="5" style="visibility: inherit;" fill="rgb(0, 0, 0)" stroke="rgb(204, 204, 204)" stroke-width="1px"></line><line x1="1107.9444444444443" y1="0" x2="1107.9444444444443" y2="5" style="visibility: inherit;" fill="rgb(0, 0, 0)" stroke="rgb(204, 204, 204)" stroke-width="1px"></line><line x1="1246.4375" y1="0" x2="1246.4375" y2="5" style="visibility: inherit;" fill="rgb(0, 0, 0)" stroke="rgb(204, 204, 204)" stroke-width="1px"></line></g><g transform="translate(0, 8)"><text x="0" y="0" dx="0em" dy="0.95em" style="text-anchor: middle; visibility: hidden; font-family: Roboto, sans-serif; font-size: 12px; font-weight: 200;" fill="rgb(33, 33, 33)" stroke="none" stroke-width="1px">-1k</text><text x="138.49305555555554" y="0" dx="0em" dy="0.95em" style="text-anchor: middle; visibility: inherit; font-family: Roboto, sans-serif; font-size: 12px; font-weight: 200;" fill="rgb(33, 33, 33)" stroke="none" stroke-width="1px">0</text><text x="276.9861111111111" y="0" dx="0em" dy="0.95em" style="text-anchor: middle; visibility: inherit; font-family: Roboto, sans-serif; font-size: 12px; font-weight: 200;" fill="rgb(33, 33, 33)" stroke="none" stroke-width="1px">1k</text><text x="415.47916666666663" y="0" dx="0em" dy="0.95em" style="text-anchor: middle; visibility: inherit; font-family: Roboto, sans-serif; font-size: 12px; font-weight: 200;" fill="rgb(33, 33, 33)" stroke="none" stroke-width="1px">2k</text><text x="553.9722222222222" y="0" dx="0em" dy="0.95em" style="text-anchor: middle; visibility: inherit; font-family: Roboto, sans-serif; font-size: 12px; font-weight: 200;" fill="rgb(33, 33, 33)" stroke="none" stroke-width="1px">3k</text><text x="692.4652777777778" y="0" dx="0em" dy="0.95em" style="text-anchor: middle; visibility: inherit; font-family: Roboto, sans-serif; font-size: 12px; font-weight: 200;" fill="rgb(33, 33, 33)" stroke="none" stroke-width="1px">4k</text><text x="830.9583333333333" y="0" dx="0em" dy="0.95em" style="text-anchor: middle; visibility: inherit; font-family: Roboto, sans-serif; font-size: 12px; font-weight: 200;" fill="rgb(33, 33, 33)" stroke="none" stroke-width="1px">5k</text><text x="969.4513888888889" y="0" dx="0em" dy="0.95em" style="text-anchor: middle; visibility: inherit; font-family: Roboto, sans-serif; font-size: 12px; font-weight: 200;" fill="rgb(33, 33, 33)" stroke="none" stroke-width="1px">6k</text><text x="1107.9444444444443" y="0" dx="0em" dy="0.95em" style="text-anchor: middle; visibility: inherit; font-family: Roboto, sans-serif; font-size: 12px; font-weight: 200;" fill="rgb(33, 33, 33)" stroke="none" stroke-width="1px">7k</text><text x="1246.4375" y="0" dx="0em" dy="0.95em" style="text-anchor: middle; visibility: hidden; font-family: Roboto, sans-serif; font-size: 12px; font-weight: 200;" fill="rgb(33, 33, 33)" stroke="none" stroke-width="1px">8k</text></g><line x1="0" y1="0" x2="1246.4375" y2="0" fill="rgb(0, 0, 0)" stroke="rgb(204, 204, 204)" stroke-width="1px"></line></g></g></g></g></svg>