<svg viewBox="0 0 1293 400" xmlns="http://www.w3.org/2000/svg"><g><g><g><g><g><line x1="51.5625" y1="377" x2="46.5625" y2="377" style="visibility: inherit;" fill="rgb(0, 0, 0)" stroke="rgb(204, 204, 204)" stroke-width="1px"></line><line x1="51.5625" y1="339.3" x2="46.5625" y2="339.3" style="visibility: inherit;" fill="rgb(0, 0, 0)" stroke="rgb(204, 204, 204)" stroke-width="1px"></line><line x1="51.5625" y1="301.6" x2="46.5625" y2="301.6" style="visibility: inherit;" fill="rgb(0, 0, 0)" stroke="rgb(204, 204, 204)" stroke-width="1px"></line><line x1="51.5625" y1="263.9" x2="46.5625" y2="263.9" style="visibility: inherit;" fill="rgb(0, 0, 0)" stroke="rgb(204, 204, 204)" stroke-width="1px"></line><line x1="51.5625" y1="226.2" x2="46.5625" y2="226.2" style="visibility: inherit;" fill="rgb(0, 0, 0)" stroke="rgb(204, 204, 204)" stroke-width="1px"></line><line x1="51.5625" y1="188.5" x2="46.5625" y2="188.5" style="visibility: inherit;" fill="rgb(0, 0, 0)" stroke="rgb(204, 204, 204)" stroke-width="1px"></line><line x1="51.5625" y1="150.8" x2="46.5625" y2="150.8" style="visibility: inherit;" fill="rgb(0, 0, 0)" stroke="rgb(204, 204, 204)" stroke-width="1px"></line><line x1="51.5625" y1="113.10000000000002" x2="46.5625" y2="113.10000000000002" style="visibility: inherit;" fill="rgb(0, 0, 0)" stroke="rgb(204, 204, 204)" stroke-width="1px"></line><line x1="51.5625" y1="75.40000000000002" x2="46.5625" y2="75.40000000000002" style="visibility: inherit;" fill="rgb(0, 0, 0)" stroke="rgb(204, 204, 204)" stroke-width="1px"></line><line x1="51.5625" y1="37.69999999999999" x2="46.5625" y2="37.69999999999999" style="visibility: inherit;" fill="rgb(0, 0, 0)" stroke="rgb(204, 204, 204)" stroke-width="1px"></line><line x1="51.5625" y1="0" x2="46.5625" y2="0" style="visibility: inherit;" fill="rgb(0, 0, 0)" stroke="rgb(204, 204, 204)" stroke-width="1px"></line></g><g transform="translate(41.5625, 0)"><text x="0" y="377" dx="0em" dy="0.3em" style="text-anchor: end; visibility: hidden; font-family: Roboto, sans-serif; font-size: 12px; font-weight: 200;" fill="rgb(33, 33, 33)" stroke="none" stroke-width="1px">-0.1</text><text x="0" y="339.3" dx="0em" dy="0.3em" style="text-anchor: end; visibility: inherit; font-family: Roboto, sans-serif; font-size: 12px; font-weight: 200;" fill="rgb(33, 33, 33)" stroke="none" stroke-width="1px">0</text><text x="0" y="301.6" dx="0em" dy="0.3em" style="text-anchor: end; visibility: inherit; font-family: Roboto, sans-serif; font-size: 12px; font-weight: 200;" fill="rgb(33, 33, 33)" stroke="none" stroke-width="1px">0.1</text><text x="0" y="263.9" dx="0em" dy="0.3em" style="text-anchor: end; visibility: inherit; font-family: Roboto, sans-serif; font-size: 12px; font-weight: 200;" fill="rgb(33, 33, 33)" stroke="none" stroke-width="1px">0.2</text><text x="0" y="226.2" dx="0em" dy="0.3em" style="text-anchor: end; visibility: inherit; font-family: Roboto, sans-serif; font-size: 12px; font-weight: 200;" fill="rgb(33, 33, 33)" stroke="none" stroke-width="1px">0.3</text><text x="0" y="188.5" dx="0em" dy="0.3em" style="text-anchor: end; visibility: inherit; font-family: Roboto, sans-serif; font-size: 12px; font-weight: 200;" fill="rgb(33, 33, 33)" stroke="none" stroke-width="1px">0.4</text><text x="0" y="150.8" dx="0em" dy="0.3em" style="text-anchor: end; visibility: inherit; font-family: Roboto, sans-serif; font-size: 12px; font-weight: 200;" fill="rgb(33, 33, 33)" stroke="none" stroke-width="1px">0.5</text><text x="0" y="113.10000000000002" dx="0em" dy="0.3em" style="text-anchor: end; visibility: inherit; font-family: Roboto, sans-serif; font-size: 12px; font-weight: 200;" fill="rgb(33, 33, 33)" stroke="none" stroke-width="1px">0.6</text><text x="0" y="75.40000000000002" dx="0em" dy="0.3em" style="text-anchor: end; visibility: inherit; font-family: Roboto, sans-serif; font-size: 12px; font-weight: 200;" fill="rgb(33, 33, 33)" stroke="none" stroke-width="1px">0.7</text><text x="0" y="37.69999999999999" dx="0em" dy="0.3em" style="text-anchor: end; visibility: inherit; font-family: Roboto, sans-serif; font-size: 12px; font-weight: 200;" fill="rgb(33, 33, 33)" stroke="none" stroke-width="1px">0.8</text><text x="0" y="0" dx="0em" dy="0.3em" style="text-anchor: end; visibility: hidden; font-family: Roboto, sans-serif; font-size: 12px; font-weight: 200;" fill="rgb(33, 33, 33)" stroke="none" stroke-width="1px">0.9</text></g><line x1="51.5625" y1="0" x2="51.5625" y2="377" fill="rgb(0, 0, 0)" stroke="rgb(204, 204, 204)" stroke-width="1px"></line></g></g><g transform="translate(51, 0)" clip-path="url(#clip_0)"><clipPath id="clip_0"><rect width="1241" height="377"></rect></clipPath><g><g><g><line x1="0" y1="0" x2="0" y2="377" fill="rgb(0, 0, 0)" stroke="rgb(66, 66, 66)" stroke-width="1px" opacity="0.25"></line><line x1="103.453125" y1="0" x2="103.453125" y2="377" fill="rgb(0, 0, 0)" stroke="rgb(66, 66, 66)" stroke-width="1px" opacity="0.25"></line><line x1="206.90625" y1="0" x2="206.90625" y2="377" fill="rgb(0, 0, 0)" stroke="rgb(66, 66, 66)" stroke-width="1px" opacity="0.25"></line><line x1="310.359375" y1="0" x2="310.359375" y2="377" fill="rgb(0, 0, 0)" stroke="rgb(66, 66, 66)" stroke-width="1px" opacity="0.25"></line><line x1="413.8125" y1="0" x2="413.8125" y2="377" fill="rgb(0, 0, 0)" stroke="rgb(66, 66, 66)" stroke-width="1px" opacity="0.25"></line><line x1="517.265625" y1="0" x2="517.265625" y2="377" fill="rgb(0, 0, 0)" stroke="rgb(66, 66, 66)" stroke-width="1px" opacity="0.25"></line><line x1="620.71875" y1="0" x2="620.71875" y2="377" fill="rgb(0, 0, 0)" stroke="rgb(66, 66, 66)" stroke-width="1px" opacity="0.25"></line><line x1="724.171875" y1="0" x2="724.171875" y2="377" fill="rgb(0, 0, 0)" stroke="rgb(66, 66, 66)" stroke-width="1px" opacity="0.25"></line><line x1="827.625" y1="0" x2="827.625" y2="377" fill="rgb(0, 0, 0)" stroke="rgb(66, 66, 66)" stroke-width="1px" opacity="0.25"></line><line x1="931.078125" y1="0" x2="931.078125" y2="377" fill="rgb(0, 0, 0)" stroke="rgb(66, 66, 66)" stroke-width="1px" opacity="0.25"></line><line x1="1034.53125" y1="0" x2="1034.53125" y2="377" fill="rgb(0, 0, 0)" stroke="rgb(66, 66, 66)" stroke-width="1px" opacity="0.25"></line><line x1="1137.984375" y1="0" x2="1137.984375" y2="377" fill="rgb(0, 0, 0)" stroke="rgb(66, 66, 66)" stroke-width="1px" opacity="0.25"></line><line x1="1241.4375" y1="0" x2="1241.4375" y2="377" fill="rgb(0, 0, 0)" stroke="rgb(66, 66, 66)" stroke-width="1px" opacity="0.25"></line></g><g><line x1="0" y1="377" x2="1241.4375" y2="377" fill="rgb(0, 0, 0)" stroke="rgb(66, 66, 66)" stroke-width="1px" opacity="0.25"></line><line x1="0" y1="339.3" x2="1241.4375" y2="339.3" fill="rgb(0, 0, 0)" stroke="rgb(66, 66, 66)" stroke-width="1px" opacity="0.25"></line><line x1="0" y1="301.6" x2="1241.4375" y2="301.6" fill="rgb(0, 0, 0)" stroke="rgb(66, 66, 66)" stroke-width="1px" opacity="0.25"></line><line x1="0" y1="263.9" x2="1241.4375" y2="263.9" fill="rgb(0, 0, 0)" stroke="rgb(66, 66, 66)" stroke-width="1px" opacity="0.25"></line><line x1="0" y1="226.2" x2="1241.4375" y2="226.2" fill="rgb(0, 0, 0)" stroke="rgb(66, 66, 66)" stroke-width="1px" opacity="0.25"></line><line x1="0" y1="188.5" x2="1241.4375" y2="188.5" fill="rgb(0, 0, 0)" stroke="rgb(66, 66, 66)" stroke-width="1px" opacity="0.25"></line><line x1="0" y1="150.8" x2="1241.4375" y2="150.8" fill="rgb(0, 0, 0)" stroke="rgb(66, 66, 66)" stroke-width="1px" opacity="0.25"></line><line x1="0" y1="113.10000000000002" x2="1241.4375" y2="113.10000000000002" fill="rgb(0, 0, 0)" stroke="rgb(66, 66, 66)" stroke-width="1px" opacity="0.25"></line><line x1="0" y1="75.40000000000002" x2="1241.4375" y2="75.40000000000002" fill="rgb(0, 0, 0)" stroke="rgb(66, 66, 66)" stroke-width="1px" opacity="0.25"></line><line x1="0" y1="37.69999999999999" x2="1241.4375" y2="37.69999999999999" fill="rgb(0, 0, 0)" stroke="rgb(66, 66, 66)" stroke-width="1px" opacity="0.25"></line><line x1="0" y1="0" x2="1241.4375" y2="0" fill="rgb(0, 0, 0)" stroke="rgb(66, 66, 66)" stroke-width="1px" opacity="0.25"></line></g></g></g><g><g><line x1="0" y1="339.3" x2="1241.4375" y2="339.3" fill="rgb(0, 0, 0)" stroke="rgb(153, 153, 153)" stroke-width="1.5px"></line></g></g><g><g><line x1="103.453125" y1="0" x2="103.453125" y2="377" fill="rgb(0, 0, 0)" stroke="rgb(153, 153, 153)" stroke-width="1.5px"></line></g></g><g><g><g><g><g><path stroke="rgb(51, 187, 238)" stroke-width="2px" d="M103.66003125,-62.14300174713138L104.90146875,52.73019836185528L106.3498125,8.579407962851285L106.55671875,-8.806370386266085L107.1774375,-10.969268446920077L109.03959375,17.833058650551802L109.45340625,47.560042159488205L111.31556250000001,33.507557049920216L111.72937499999999,47.18806237667676L112.1431875,53.22704136088978L113.384625,65.2065694382858L113.79843749999999,77.55510398429911L115.4536875,81.85193764689157L116.07440625,73.07217832646539L116.695125,64.52535138728575L118.76418749999999,51.94053988130514L120.4194375,41.99222891383875L122.0746875,46.63528910390161L122.28159375,46.84910040396278L122.4885,42.28489209864731L122.69540624999999,34.70489140438539L123.316125,28.13048690048999L123.52303125,22.646645808985582L123.7299375,32.29106233900549L124.55756249999999,25.917584460838732L124.76446875,23.793692629391053L124.97137500000001,19.414099329810455L125.17828125,28.639438958535038L126.00590625000001,27.064075327539072L126.62662499999999,24.18169465430431L127.0404375,18.47608084806695L129.937125,21.214601720719354L131.1785625,19.194261566893044L133.6614375,16.73399557993017L133.86834375,13.402544795378933L134.07525,10.756295613319931L134.69596875,9.998235121592122L134.902875,7.8058621574462945L136.558125,12.32251409381014L136.76503125,11.4061607903645L137.59265625,9.123266150766794L138.00646874999998,18.905408748516493L138.6271875,15.654530165218107L138.83409375000002,15.092682245494268L139.24790625,13.021369000805121L140.07553124999998,19.808609960245583L142.55840625,27.50963672366415L143.79984375,25.268348196821886L144.62746875000002,25.29418208348802L149.800125,30.825800187178608L150.00703125,33.69290861268504L151.8691875,29.72445378321933L154.55896875,27.716254441430845L155.1796875,26.058694811751092L157.24875,26.270306471662465L157.6625625,24.18543088657624L158.904,22.845869594870987L159.11090625000003,20.701951834816736L160.76615625,26.429651466766355L162.42140625,24.105916951167018L162.83521875,29.460788851101267L163.66284375,29.052628048126394L164.49046875000002,29.511981918233616L165.1111875,26.989510484242437L167.18025,30.760432484500896L168.4216875,30.819952861726723L168.62859375,33.680736768247L169.66312499999998,34.49976814365732L170.28384375,34.33000420162508L171.11146875,37.047461065439684L172.55981250000002,42.24501008574746L172.973625,42.957957633930846L173.80125,41.54391119460072L176.6979375,41.74456778532117L177.939375,43.91790931882468L180.21534375,45.33211482020797L181.45678125,52.93980546624258L182.69821875,59.06658975695087L183.52584375,63.31674439524938L183.93965625,64.61385291840188L186.00871875,66.78888570556352L186.62943750000002,73.8602948759167L186.83634375,79.45884390606123L187.04325,86.24545401725791L188.07778125,88.27335528883489L188.28468750000002,89.19334312406038L188.90540625,89.72453617748876L189.73303124999998,88.53138483179761L190.14684375000002,90.25483421701973L195.7333125,91.77382683996771L198.00928125000002,94.11759451763315L198.63,94.37784882720501L202.14740625,100.40313868668366L203.18193749999998,100.87275586185076L203.80265624999998,100.55954440596186L204.0095625,100.62815877487074L204.423375,101.45369998939168L205.04409374999997,102.54800222784472L206.28553125,103.21729276949527L206.90625,108.01718847957028L208.35459375,108.23063139796498L208.9753125,109.18531692095752L209.8029375,109.5639999631183L210.6305625,108.7996731204129L211.044375,109.08161681992276L211.4581875,108.86393087612787L212.28581250000002,109.6178885456651L216.63084375,110.69168886219292L216.83775,113.02387012731297L217.25156249999998,113.47888617726508L219.320625,118.60310165347205L220.35515625,123.5639109912736L220.76896875,124.83083715846145L221.59659374999998,124.41045885566177L222.2173125,126.37848109341027L223.66565625,126.305470333583L224.07946875,125.32221719466534L224.90709375,126.75878689595574L225.5278125,128.0878765278316L225.73471875,132.97753683353906L226.14853125000002,134.77140530445374L226.56234375,136.47179279602602L227.38996875,137.33291421780555L228.01068750000002,140.22580005597916L229.45903124999998,144.9991348942765L229.87284375000002,145.35877598242558L230.28665625,145.74948924332938L231.735,144.93492515290313L232.562625,145.96343332759997L233.18334374999998,144.9642714100344L234.21787500000002,144.52622705877363L235.66621874999998,143.4913997767149L236.2869375,143.55848853057222L237.52837499999998,141.8234538534354L237.94218750000002,141.78696988288777L238.56290625000003,140.76932018070093L238.97671875,140.71442009688474L240.4250625,140.4069840734958L240.838875,143.73784727545788L242.90793749999997,147.8445571291459L243.94246875000002,148.73439705198618L244.77009375,151.5164865421456L245.39081249999998,149.53845335968373L246.2184375,153.6887999375494L246.83915625,156.52452910343928L247.0460625,154.6844643013762L247.25296874999998,155.8761698463031L247.459875,155.47229249640955L248.28750000000002,159.67533269120005L248.49440625,157.87913575557684L251.39109375,157.85553275404766L251.59799999999998,162.3707292308833L252.21871875,164.94914124679022L252.8394375,164.62928070961078L253.66706250000001,163.9506272315198L255.52921875,164.61563460942364L256.77065625,165.66008873516836L257.8051875,164.67074983436694L258.83971875,166.71541790534783L259.4604375,170.2801451072812L259.87425,169.53804066880886L260.2880625,168.87147860161062L261.5295,168.49843676415946L262.97784375000003,171.2470590826986L264.21928125,170.0667004385997L266.70215625,172.61571317596653L268.1505,175.17599034147915L269.3919375,173.94372530883822L269.59884375,172.83144330530573L269.80575,176.22211296622797L270.633375,174.3535407363596L271.461,175.7808976374993L272.08171875,176.47840753458883L274.3576875,175.0518927428042L275.599125,173.65916193933413L277.46128125,174.63908047522523L277.66818750000004,176.37446386290216L279.94415625,174.87954533538348L280.9786875,176.17326789230094L283.66846875,176.42311039726405L284.2891875,176.33065129769344L284.90990625,174.24876019204046L285.73753125,175.92148202830916L286.35825,174.97139687796687L287.39278125000004,173.76836712252702L287.5996875,172.17141868850547L289.46184375,171.8288068688766L289.87565625,175.02012072032713L290.70328125,172.80316144440192L290.9101875,172.22719836879037L292.5654375,170.8928959999856L292.77234375,169.80337847555387L294.2206875,167.63028543059463L294.84140625,167.13943583687941L296.7035625,169.91083836145503L297.5311875,167.50896213405233L299.60025,166.3214052910405L300.0140625,167.22463061343612L303.3245625,168.81305216623642L304.566,167.5072771454027L305.8074375,164.81400545665974L306.01434375,163.78535486958287L306.22125,163.98686899773244L308.08340625,165.29019703529104L308.29031249999997,165.64944544276327L311.18699999999995,169.36800720833384L311.39390625000004,167.89828231573088L312.22153125,167.5634023739188L313.669875,169.6596513472256L313.87678125,169.8141495803842L315.53203125,168.4405430386109L316.35965625,169.64685023446506L318.01490624999997,169.47536974609648L318.84253125000004,171.79125115041802L321.32540625,171.34793234800713L322.56684375000003,171.4056715315483L323.1875625,172.31177988002446L324.429,171.8807314167866L325.04971874999995,170.76239635346175L325.256625,170.17776221051597L325.6704375,170.5662671143269L325.87734375,171.00870660659618L327.11878125000004,171.08636685922616L327.94640625,169.89814660485942L328.15331249999997,172.20802300938485L331.25690625,172.78972683051092L332.70525000000004,173.05976188493287L333.32596875,172.19422040311605L334.15359374999997,172.25621347257353L335.60193749999996,175.3723786197875L336.01575,174.78723714329865L336.63646875,174.6462818683867L337.46409374999996,175.13746797229845L339.7400625,176.52212031962813L340.36078125,176.71335412560387L342.42984375,177.0326852942712L342.63675,177.10457801523296L349.05084375,177.57201592863387L349.25775,178.7898619822577L350.4991875,178.12067826499478L351.53371875,177.062832955791L352.77515625,180.01739075968928L352.9820625,180.72940154847112L358.56853125,182.25311837226243L358.77543749999995,183.62610041026122L359.18925,183.60412632179572L359.6030625,183.85674121147838L361.05140625,184.83002942515807L361.46521875,184.79834075867765L362.49974999999995,187.67452482261223L363.327375,187.30390126661428L369.32765624999996,190.21097047545152L369.53456250000005,193.0327413456005L370.3621875,195.56562286595067L370.56909375,197.25389308673468L371.603625,198.15796567861847L372.22434375,200.26183657041167L373.46578125,202.6514048868472L376.56937500000004,203.01868936868985L376.9831875,204.13070184699467L377.60390624999997,203.97756502329423L377.8108125,205.269667794254L379.67296875,205.1194153120801L380.7075,206.5488181067527L381.1213125,207.8024089582251L381.535125,211.0059184479964L382.36275,213.45636019195516L383.39728125,215.0875699312703L383.81109375,216.8010364554736L385.88015625,219.41454817018558L386.500875,221.32908490788233L387.53540625,224.61649065432792L387.7423125,227.7079195317201L388.36303125,229.16268284042812L389.19065625,230.72443980992537L391.67353125,232.9754818429588L392.08734375,235.64341560031426L392.50115625,237.29451968168422L392.70806250000004,239.7549622913835L392.91496875,241.46680293262503L394.3633125,242.9765393984648L394.777125,244.8699082358965L396.8461875,246.2876065199966L397.88071875,247.96795793230464L398.70834375,250.08528037057587L399.12215625,251.55114343925902L399.32906249999996,252.77524368046298L399.94978125,254.5480573043117L400.5705,256.65297837852603L400.77740625,257.9452388080941L401.19121874999996,259.1500362692704L401.398125,260.7877418461078L401.60503125,262.60870636727407L404.08790625,264.4931327382121L406.7776875,265.7445643361572L407.1915,267.54206591132373L409.2605625,268.6872382256849L409.88128125,270.62425447143164L412.36415625,272.4363180711868L413.19178124999996,273.8258636808615L414.2263125,275.15430294857543L414.43321875,276.27858697366213L414.640125,277.3470267191064L414.84703125,278.53812090269497L415.88156250000003,280.1961273723265L416.91609374999996,280.89646290820406L417.12300000000005,281.9988870445677L418.15753125,282.7494015804083L418.57134375,283.45665811519035L419.605875,284.3867954586273L421.6749375,285.38187615497765L422.08875,286.1612614551717L425.81306250000006,287.01907578474487L426.01996875000003,287.77230818170216L428.70975,288.42076939027925L430.365,289.0975654868125L430.98571875,290.05597823041325L435.12384375,290.7113610495663L435.33075,292.1584507641356L437.3998125,292.6703541588287L439.26196875,293.26174341855886L439.67578125,294.01425392932856L443.607,294.73319611441025L444.22771875,295.81826905016334L445.88296875000003,296.3720337615954L446.29678125,297.4460833987326L449.8141875,298.0060451346611L450.02109375,298.5350050485043L451.26253125,299.165634890329L451.67634375,299.6831618346692L453.1246875,300.4239395583679L453.74540625,301.0162029255277L453.95231249999995,301.4697209343595L454.57303125,301.9628322124453L454.7799375,302.6634266825718L456.4351875,303.42570101195344L457.2628125,304.17253682985495L457.67662499999994,305.10557722481207L461.19403125,305.4176194920465L462.2285625,305.86526486284424L462.64237499999996,306.17121444944223L462.84928125000005,306.52168440070994L463.47,307.044406173428L464.09071875,307.6925482648971L467.608125,308.3504313377429L467.81503125,308.7996691097721L468.0219375,309.342454240595L468.43575000000004,310.11971073487587L470.091,310.4417161018513L470.5048125,310.8825896077836L472.573875,311.61448829762105L472.78078125,311.8570109028113L473.40150000000006,312.2472729334419L475.88437500000003,312.5935983523258L476.09128125,312.7787064163738L476.91890624999996,313.322097243203L478.16034375,313.9061191481297L479.194875,314.0037147221642L479.40178125,314.09373077758045L479.81559375,314.20501864095485L480.64321875,314.270740269805L481.05703125,314.3963090068477L481.67775,314.7136552273725L482.09156249999995,314.9160952489415L483.33299999999997,315.422162065383L484.98825,315.4632884075399L486.2296875,316.05032555633085L486.6435,316.1622135347683L488.91946874999996,316.1889986545965L489.954,316.4458116026523L490.57471875,316.5981713694784L490.78162499999996,316.7706216422979L492.85068750000005,316.92016653122573L493.05759375,317.4030952414041L493.47140625000003,317.7556136105258L493.6783125,317.8939530256454L493.88521875,317.8971946155073L494.29903125,317.8772222770028L494.71284375000005,317.6470899093044L494.91975,317.8547199503965L495.3335625,318.07873732100154L495.747375,318.4640263415293L495.95428125,318.8423527731965L498.43715625000004,319.07846994892145L499.4716875,319.08695507448414L499.88550000000004,319.2868793985499L500.09240625,319.33338921761384L500.713125,319.28474368406245L502.16146875000004,319.3069655795591L502.57528125,319.34879891208374L502.7821875,319.3507734016235L507.54103125,319.5314065766702L507.7479375,319.73550118603265L508.16175,319.9967324912022L508.36865624999996,320.2848723216005L509.19628125,320.5884921713114L509.4031875,320.581967460244L511.8860625,320.750071151944L512.50678125,320.8530824928114L513.5413125,320.7993641166671L514.98965625,320.8247740770638L515.1965625,320.85762831884955L517.05871875,320.8868889575048L517.88634375,320.9750534682749L518.09325,321.12159719802406L519.95540625,321.49163279822295L520.3692187500001,321.8260374565772L520.9899375,321.59755010410254L523.886625,321.53598009607407L527.40403125,321.5769971337768L527.6109375,321.7542896458068L528.64546875,321.6156772135772L532.78359375,321.3424832451647L533.19740625,321.22833560194226L533.818125,321.27424536222304L534.2319375000001,321.2500896033436L534.85265625,321.2086844726201L535.473375,320.9055894596067L536.0940937500001,321.0536202749546L537.9562500000001,321.4621539046505L538.783875,321.5843260329851L539.1976875,321.74861291384946L539.6115,321.9335285550054L540.0253125,321.92499901303114L540.23221875,322.24355850941976L542.5081875,322.3742784378272L542.7150937499999,322.390118464805L543.749625,322.806465980969L545.8186875,323.0084573709618L547.2670312500001,323.14620967452254L547.68084375,323.26332367656073L548.09465625,323.2456919884126L548.50846875,323.35212542407163L549.1291875000001,323.29798563979654L549.543,323.6170153198064L550.7844375,323.69679121721975L552.23278125,323.9287938631543L553.06040625,323.9921375748647L554.0949375,324.0488051899077L555.5432812500001,324.00219907503595L556.164,324.1384603784812L557.81925,324.29455036857416L558.85378125,324.60699528175877L559.8883125,324.69733129721203L560.7159375,324.9893236202864L561.1297500000001,324.9941878944271L561.5435625,325.01336102885995L562.99190625,325.06026690153544L563.1988125,325.3170314160246L564.44025,325.4286439031331L564.8540625,325.6542448664331L565.47478125,325.67134656937225L567.13003125,325.9336316872995L568.37146875,326.03507206095304L568.78528125,326.09911711041565L570.02671875,326.32015271595776L571.26815625,326.3676061815191L572.50959375,326.25524599335057L572.7165,326.4399793192087L573.33721875,326.6755207841422L574.57865625,326.7563044124022L574.7855625000001,326.81058350762436L575.40628125,326.7648570250876L576.4408125,326.82187012193447L577.06153125,326.92842930667257L577.68225,326.90083117737026L579.7513125,326.8497871790228L580.5789375,326.8906703697799L580.78584375,326.836540692955L581.4065625,326.9477578785498L585.3377812499999,327.0978935024947L586.99303125,327.2979884825108L588.441375,327.25216309311367L589.269,327.2715209290073L589.6828125,327.2162775348045L590.096625,327.3970962482843L590.30353125,327.3288209513089L592.1656875,327.1657368640995L593.8209375,327.08879171497534L594.02784375,327.0259129815264L594.85546875,326.76893206158246L595.26928125,326.979487612866L596.3038125,326.89819921456296L596.717625,326.7973740207921L597.75215625,326.65909937237933L598.16596875,326.5448321641422L598.7866875,326.5813378730374L599.40740625,326.5688614419522L599.8212187500001,326.5720400397011L600.23503125,326.7404782578946L600.4419375,326.80035026460655L601.06265625,326.70601490704735L601.6833750000001,326.66825329151857L602.30409375,326.6263436361347L604.5800624999999,326.7123508426363L604.993875,326.7979883161649L605.8215,326.8951986464844L606.649125,326.8692370052617L606.85603125,326.9361915571746L608.3043749999999,327.16049744603066L609.33890625,327.37120758917285L610.3734375,327.5177142235036L611.614875,327.5490891071038L612.0286875,327.55045906928046L612.23559375,327.58877273492726L613.06321875,327.5421596730233L614.30465625,327.66036320233803L614.5115625,327.6240885819933L615.3391875,327.64109983373385L615.5460937500001,327.76783186974075L618.235875,327.8898941089736L619.0635,328.0530130854095L620.3049374999999,328.3002932870349L620.71875,328.4956672859696L621.3394687499999,328.5109782088475L622.9947187500001,328.56353369496776L624.64996875,328.6425909349499L624.856875,328.48514499661235L625.0637812499999,328.49025091480024L627.96046875,328.2812286173794L630.44334375,328.2975523512062L633.34003125,328.4714755894015L634.16765625,328.7272064662224L634.788375,328.73286552193986L635.40909375,328.66089162674245L635.616,328.7205599246133L636.6505312500001,328.80319841863445L637.47815625,328.8910694538726L638.71959375,328.8450198419076L638.9265,328.90092307783993L639.13340625,328.8994087665945L641.4093750000001,328.9698865668718L641.61628125,329.1287789713319L642.03009375,329.0212867826475L642.237,328.98761874304097L642.4439062499999,328.94739667603903L642.85771875,329.09514145321066L645.34059375,329.3143665620528L645.5475,329.3382458878787L645.9613125,329.3889108533711L646.58203125,329.2049087442133L646.7889375,329.080955671187L647.4096562499999,329.0680831315919L647.8234687500001,329.24284744750037L648.030375,329.3340462914512L648.65109375,329.4568661951044L651.5477812500001,329.43465472111234L652.37540625,329.6813638132103L652.5823125,329.8285318444864L653.4099375,329.77876173862245L658.58259375,329.7353018746651L660.0309374999999,329.6720541276939L660.65165625,329.89961101371887L661.6861875000001,330.00167939500886L662.7207187500001,329.91266633805054L664.1690625,329.8610785063331L665.2035937500001,329.9916541082524L666.03121875,330.02928166263166L666.44503125,329.99871779968754L666.85884375,329.8482520719652L667.4795624999999,329.85831602212465L667.68646875,330.02159079597715L667.893375,330.0744137564893L674.30746875,329.95662946588016L674.72128125,329.9566906021656L677.20415625,329.95404372750215L678.2386875,329.95595054955623L678.8594062499999,329.9060476760505L679.8939375,329.8423195747072L680.10084375,329.99515175303344L681.3422812499999,330.0358897539497L681.75609375,330.08554083752506L683.82515625,330.2635316611557L684.0320625,330.4604032880136L685.6873125,330.36294561995L685.8942187499999,330.491288438164L686.1011249999999,330.47920661974825L687.756375,330.4597286938977L687.96328125,330.56723239670345L688.1701875,330.60511141768103L688.584,330.6651421821909L690.2392500000001,330.8902012953404L691.27378125,330.77078251967686L695.205,330.817478442381L696.2395312499999,330.91321219211727L696.8602500000001,330.8590332395816L697.89478125,330.8898593208941L698.30859375,330.91258343936926L699.13621875,330.846644973524L699.9638437499999,330.74848911397197L700.5845625000001,330.5775777722839L700.998375,330.70168393450155L703.8950624999999,330.6875849591526L704.7226875,330.71685455982663L707.619375,330.8264091809557L710.5160625000001,330.8399921726565L710.7229687500001,330.9263380665547L711.13678125,330.9441647302201L711.5505937500001,331.04224512551576L713.20584375,331.0260892055323L714.2403750000001,330.8910679128807L714.86109375,330.8182476056512L717.5508749999999,330.9962768815754L717.9646875000001,330.94374479640953L718.7923125,331.0031405122103L723.13734375,331.023061031554L724.9994999999999,330.8527705423432L725.827125,330.80391648925365L727.6892812499999,330.82526646941204L728.93071875,330.9936601505103L729.96525,331.0705267200996L730.17215625,331.21028351235265L732.24121875,331.2272659704692L732.8619375000001,331.35971582376715L733.48265625,331.289233065142L736.79315625,331.25363390595186L737.20696875,331.2187222650444L737.8276875,331.13944267601073L738.03459375,331.0407338272522L738.8622187499999,330.94335982249913L740.3105625000001,330.99376043617394L740.51746875,330.8984680551725L740.93128125,330.8740902213564L742.3796249999999,330.9238420138899L742.5865312499999,330.7889640631388L742.7934375000001,330.6836446464955L743.6210625,330.7436593841309L744.65559375,330.7996365713427L745.2763125,330.8382041173871L746.5177500000001,330.86081051279587L746.9315625,331.0242982492881L747.7591875,330.9757301841639L747.96609375,330.96528446020335L748.7937187499999,330.9179368014052L749.2075312500001,330.93752044199186L750.4489687500001,331.0420527005569L752.7249374999999,331.0985575635559L753.1387500000001,330.89173326299664L753.34565625,330.9792475648542L753.966375,330.89049150418396L754.58709375,330.9235527100104L754.794,330.935763453302L755.2078124999999,330.8793312663351L755.82853125,330.7684445461355L758.5183125,330.7512646658431L760.1735624999999,330.83524150889264L760.3804687500001,330.85918254025285L760.5873750000001,330.98686806638983L760.79428125,330.93329412989476L761.415,330.94555623118504L761.62190625,331.05796707496654L764.1047812500001,331.216213737772L764.93240625,331.39582332992967L766.17384375,331.48561756348766L767.0014687500001,331.5237529953822L767.6221875,331.59621607138695L768.0360000000001,331.59065363166957L769.2774375,331.7868835471205L770.7257812500001,331.8680379664411L772.79484375,331.8664310731841L773.00175,331.8861136266431L773.4155625,332.0059548230669L774.4500937500001,331.92960758767884L777.3467812499999,331.9832798426325L777.7605937499999,331.9870584321416L782.105625,332.0277174364498L782.5194375,332.058994533398L783.14015625,332.06783946831047L783.9677812499999,332.240642267638L784.1746875,332.20489354082105L787.071375,332.24288244828773L787.6920937499999,332.29165205052556L788.1059062500001,332.28327311340877L788.51971875,332.4054622881875L788.93353125,332.3218851107635L790.17496875,332.3066451707974L792.0371250000001,332.3258505837992L792.4509375,332.333237004285L792.8647500000001,332.42871775672523L793.2785625,332.39106493109375L793.692375,332.47176333733375L794.52,332.41279466349994L796.79596875,332.4485452559028L798.2443125,332.342533353554L798.45121875,332.4507774746669L799.0719375000001,332.6235193954181L800.52028125,332.6398461774972L803.0031562500001,332.76614645491884L804.4515,332.7808916780721L806.10675,332.824512141278L807.14128125,332.7441220778033L808.1758125,332.7984011135659L808.589625,332.7464606990722L809.0034374999999,332.902784188093L809.2103437500001,332.9173586353432L810.244875,332.9675792972467L810.4517812500001,332.987717138683L810.6586875,333.07107248196934L811.900125,333.07062112279516L813.34846875,333.1554368227062L813.555375,333.1009067264636L814.383,333.1088291832158L815.41753125,333.05108111960124L816.6589687500001,333.0171276102173L818.1073125,333.1449227603725L818.9349374999999,333.13577313481477L819.14184375,333.1190485107787L819.55565625,333.1090191423159L819.9694687499999,333.1018566143213L820.79709375,333.11303958014145L822.86615625,333.1660582778082L824.1075937500001,333.1379481067249L824.93521875,333.1116327050545L825.76284375,333.14857334884687L825.96975,333.1670847789898L826.17665625,333.23379886289155L827.0042812500001,333.26020134255793L830.5216875000001,333.36539841881716L830.7285937500001,333.4000684780115L831.3493125,333.31352803651305L831.97003125,333.2059614275571L832.59075,333.0965728413021L833.0045625,333.07216355297106L833.418375,333.21552420825856L834.2460000000001,333.2601458735967L835.073625,333.38835283927L836.5219687499999,333.4136508443492L836.728875,333.53540283673163L836.93578125,333.59721774914055L837.1426875,333.6303371381894L837.5564999999999,333.5683101871226L837.7634062499999,333.58381843655724L837.9703125000001,333.4320651821993L838.384125,333.4366679847426L840.4531875,333.54801655298587L840.66009375,333.51189524354L840.867,333.5574477642965L841.2808124999999,333.41515104833906L842.72915625,333.44281471457373L843.14296875,333.46877260320946L843.55678125,333.5018745960836L843.7636875,333.4933289378904L844.1775,333.4335808222444L844.79821875,333.419782622743L846.03965625,333.3623591408817L846.45346875,333.4067050856305L847.0741875,333.4045311013147L849.1432500000001,333.3660436324045L849.76396875,333.3492128777786L850.7985,333.3741195013422L851.2123124999999,333.37924224727817L854.31590625,333.4676509288056L854.9366249999999,333.4273989484997L855.5573437500001,333.45759585886816L856.591875,333.5771923064839L856.79878125,333.6767783738522L858.8678437499999,333.62724814718615L859.0747499999999,333.59249001959716L860.10928125,333.72813373745817L862.17834375,333.75400839087854L863.0059687500001,333.78640375071916L863.41978125,333.7099173451775L864.24740625,333.8037889350496L864.4543125,333.8538570777096L866.1095625,333.9613302956875L866.7302812500001,333.9388547935331L867.55790625,334.01049804089564L867.7648125,334.0960576040242L868.38553125,334.116918943932L868.7993437499999,334.06810267398646L870.04078125,333.98079714905367L870.6615,333.99327029797524L872.31675,333.9559178130174L873.5581875,333.78918362189097L875.00653125,333.8890827644941L876.0410625,333.82940038162616L876.4548749999999,333.7903266465336L877.2825,333.9243682824487L877.48940625,333.998835353133L878.31703125,333.9846150258067L879.55846875,333.89345643285503L882.04134375,333.92057887726423L882.6620624999999,333.8912028075226L886.17946875,333.90998354718704L888.66234375,333.9178207426628L891.55903125,333.8715584036448L897.5593124999999,333.85221941232896L897.7662187499999,333.91296361233657L898.59384375,333.8922144679496L898.80075,333.87557204540803L900.456,333.82525176506863L902.5250625,333.7554262847491L903.14578125,333.78483324976645L903.3526875,333.6941520617736L904.80103125,333.58769833295713L905.42175,333.57249177041786L905.6286562500001,333.5661343508704L905.8355625,333.57789015392865L908.1115312500001,333.5779424348983L909.76678125,333.46841330011296L910.3874999999999,333.44281378209354L910.8013125,333.5573082161711L911.00821875,333.5309436277804L913.2841875,333.52616903239806L913.698,333.494521023539L917.0085,333.5811734268483L918.2499375,333.4769910480615L919.2844687500001,333.43101234137083L921.97425,333.34007909720424L922.3880625,333.3788369709426L923.83640625,333.4330614178249L924.25021875,333.4734410084156L925.0778437499999,333.6233541512973L926.7330937500001,333.6703605046352L928.59525,333.73593657868645L932.11265625,333.73483822934514L932.5264687499999,333.6848311047057L933.1471875000001,333.70822621179116L934.18171875,333.7746459595341L934.8024375,333.7876016976147L937.0784062500001,333.78506655957636L938.52675,333.7423601333103L938.73365625,333.77019085048823L940.38890625,333.837510128381L941.21653125,333.8661633012238L942.04415625,333.9560003611768L943.0786875,334.0732089152301L943.4925000000001,334.18045163590523L944.11321875,334.1174508101669L944.3201250000001,334.2511058050031L947.630625,334.22355081439036L947.83753125,334.2044458734944L948.0444375000001,334.214027273886L950.3204062499999,334.14564617129923L950.941125,334.14799769747947L955.28615625,334.1582800052213L956.7345,334.2588156664076L956.94140625,334.27076934888936L958.1828437500001,334.2994360895242L959.6311875,334.1880999894127L960.4588124999999,334.15737430643094L961.70025,334.2460007555253L961.9071562500001,334.33422503025236L963.14859375,334.33191156138696L963.56240625,334.31551384861183L963.9762187499999,334.3267407920929L966.2521875,334.3494884168183L967.0798125,334.31235692751443L969.9765,334.31855589925055L970.3903124999999,334.2638024109588L970.59721875,334.2103627502484L971.01103125,334.24751389238054L972.459375,334.2091655640048L974.1146249999999,334.2969662757331L974.73534375,334.328585339062L979.2872812500001,334.42735816811256L980.3218125,334.5328949436335L980.94253125,334.52484094478393L981.1494375,334.4909691053457L983.01159375,334.3492502057822L983.2185000000001,334.3451271921595L985.08065625,334.4192261270034L986.529,334.5168259410368L986.73590625,334.527086464809L989.6325937500001,334.5001281512409L989.8395,334.5209257978872L990.667125,334.5133495087645L994.59834375,334.4828364445978L995.2190625,334.57103059542186L995.83978125,334.4902617561277L996.0466875,334.4889227577344L997.0812187500001,334.5110541365369L997.288125,334.5115653741587L997.49503125,334.49757736143965L997.7019375,334.52410064278865L998.11575,334.5489982812566L998.73646875,334.6028755492998L999.3571875,334.6490558125255L1002.8745937499999,334.6506247774235L1003.2884062500001,334.71791976846845L1003.4953125000001,334.7854859141998L1008.4610625,334.69408855431976L1009.90940625,334.7209884657647L1011.97846875,334.711451414874L1012.5991875,334.75325811504376L1013.0129999999999,334.8302744792129L1014.87515625,334.8479448118267L1016.5304062499999,334.8218042372238L1017.5649374999999,334.79703694273434L1018.3925625,334.7612493370752L1019.42709375,334.78671047476314L1019.634,334.8860168028175L1019.84090625,334.8670080382941L1020.2547187499999,334.71779222533706L1021.9099687500001,334.786772354451L1022.116875,334.8650893760799L1023.15140625,334.8780806239705L1023.56521875,334.95587243390287L1023.772125,334.9988697496923L1024.1859375,335.0351377967242L1025.63428125,335.07052009391117L1026.04809375,334.98361667508965L1027.082625,334.9803908814635L1029.1516875,335.0296009725982L1029.35859375,335.0295495868902L1030.393125,335.1272285051914L1030.8069375,335.11829308931067L1031.01384375,335.1603983392735L1033.2898125000002,335.20279211345996L1033.4967187500001,335.22221748965643L1033.91053125,335.2366709540524L1034.32434375,335.2579631705329L1036.6003125,335.2461546179288L1036.80721875,335.2604515248281L1038.04865625,335.3056345787834L1038.46246875,335.35248827280134L1039.497,335.3548970894275L1040.9453437500001,335.32296739928563L1041.35915625,335.28963545415496L1042.18678125,335.36333005874843L1042.8075,335.38099648250426L1045.7041875,335.3688014615109L1047.3594375,335.3580518604204L1047.98015625,335.3423408176257L1048.39396875,335.3026257268162L1049.0146875,335.2968434747368L1049.22159375,335.2766328740755L1050.87684375,335.3304934322532L1051.08375,335.3004455088384L1052.53209375,335.3758608301134L1053.35971875,335.36637697630357L1055.6356875000001,335.4399838366071L1056.25640625,335.32747284577914L1056.4633125,335.2898524154616L1058.532375,335.14676276436643L1061.01525,335.14617604131104L1061.22215625,335.2062702772921L1061.6359687499998,335.11871155785997L1062.87740625,335.0680821842561L1063.0843125,335.10451672701856L1063.9119375,335.1423162728927L1065.5671875,335.2502489243131L1065.981,335.26374866794555L1066.3948125,335.2687795852092L1067.42934375,335.28960111252576L1068.6707812500001,335.31386303429485L1069.49840625,335.36171554806117L1070.5329375,335.25618527966026L1071.15365625,335.2740752287769L1071.9812812500002,335.25695195267906L1072.80890625,335.273014328731L1073.0158125,335.2849469719836L1073.429625,335.3584789142245L1074.2572499999999,335.3836139633033L1075.4986875,335.4517859901815L1079.84371875,335.40257062175476L1082.1196875,335.3036111727958L1082.74040625,335.2372203229184L1084.6025625,335.2428995598755L1086.46471875,335.2015687840247L1087.29234375,335.22995429631175L1087.70615625,335.26529103804467L1088.53378125,335.34375016891636L1092.8788124999999,335.396869961665L1093.49953125,335.3173235275992L1093.7064375,335.2347284866201L1095.98240625,335.26843480580237L1098.6721875,335.2991707411214L1099.4998125,335.2904185342202L1100.74125,335.26226718060764L1101.568875,335.2572347917428L1101.77578125,335.23240069354165L1101.9826875,335.2828565671215L1103.224125,335.29076126212954L1104.879375,335.37266779755834L1107.98296875,335.36309679334886L1108.189875,335.40179213804635L1110.46584375,335.37751896349766L1112.328,335.3561888579712L1113.1556249999999,335.44596387303375L1113.36253125,335.3502145385136L1113.77634375,335.3829836607015L1116.67303125,335.3810127783629L1117.08684375,335.40909998851123L1117.50065625,335.42129646618315L1120.81115625,335.3279124773617L1121.0180625,335.4006694388574L1121.22496875,335.29894949254424L1123.5009375,335.26015749677646L1123.91475,335.19252119348283L1127.01834375,335.2005480038377L1127.43215625,335.22508980401494L1128.4666875,335.2145219821747L1130.32884375,335.21292523653284L1130.9495625,335.1614037450008L1131.15646875,335.14244486705877L1131.5702812499999,335.12273250358083L1134.46696875,335.1624688905635L1135.9153125,335.17882964172634L1137.77746875,335.25655107666296" style="fill: none;" fill="none"></path></g></g></g></g><g opacity="0.2"><g><g><g><path stroke="rgb(51, 187, 238)" stroke-width="2px" d="M103.66003125,-62.14300174713138L104.90146875,163.58283646702768L106.3498125,-75.14042456150058L107.1774375,-18.88988144397739L109.03959375,147.41086374521257L109.45340625,205.3034716129303L111.31556250000001,-52.01138920784L111.72937499999999,140.7310140013695L112.1431875,98.90203516483308L113.384625,164.20114715695382L113.79843749999999,187.94381924271585L115.4536875,123.0651836872101L116.07440625,-16.664291036129033L120.4194375,-77.1848316907883L122.0746875,104.79119955301286L122.28159375,49.63975559473039L122.4885,-19.606390190124547L123.52303125,-59.50365371704105L123.7299375,181.01872153878213L124.55756249999999,-75.07894403934482L124.97137500000001,-53.51824624538425L125.17828125,185.79236050248147L126.00590625000001,-0.3530770659447051L127.0404375,-84.81255109310153L129.937125,71.69753329753877L131.1785625,-18.695552659034764L134.902875,-36.46450216770175L136.558125,104.69322620630265L136.76503125,-7.562679481506381L137.59265625,-38.68247492313388L138.00646874999998,226.02187951207162L138.6271875,-53.90407247543338L138.83409375000002,2.9494786143303L139.24790625,-32.177831184864075L140.07553124999998,169.28242467641832L142.55840625,198.6031058907509L143.79984375,-24.94631959199909L144.62746875000002,25.877646136283882L149.800125,156.72398312687875L150.00703125,99.4303946375847L151.8691875,-61.909798216819794L155.1796875,-12.726256859302554L157.24875,31.252675163745888L157.6625625,-25.196511161327397L159.11090625000003,-30.651379477977788L160.76615625,164.35080369114877L162.42140625,-32.13284434080127L162.83521875,159.6903172016144L163.66284375,19.07977895736695L164.49046875000002,40.786110985279095L165.1111875,-35.187972378730805L167.18025,124.0971621155739L168.4216875,32.29905747175218L168.62859375,105.0447842359543L169.66312499999998,55.00629060268403L170.28384375,30.064478683471688L171.11146875,105.55943642854692L172.55981250000002,173.7138198196888L172.973625,61.048347342014324L173.80125,5.555030333995828L176.6979375,46.866368341445934L177.939375,99.54854689836503L180.21534375,81.6290195465088L181.45678125,248.70566420555116L182.69821875,217.11914710998536L183.52584375,173.22187452316285L183.93965625,98.2336367249489L186.00871875,123.28939883708955L186.62943750000002,257.9479270607233L186.83634375,225.5055195271969L187.04325,263.63722357451917L188.07778125,141.3813457965851L188.28468750000002,113.3311047434807L188.90540625,103.68628041744233L189.73303124999998,57.117121863365185L190.14684375000002,135.70617227554322L195.7333125,131.89691911935807L198.00928125000002,156.121447044611L198.63,101.27299015522004L202.14740625,260.26356980502607L203.18193749999998,113.34953092336656L203.80265624999998,92.22715150117875L204.0095625,102.45583854913713L204.423375,123.47062705755235L205.04409374999997,131.76723926067353L206.28553125,121.1085705637932L206.90625,236.467658418417L208.35459375,113.94865142107011L208.9753125,134.78695307970048L209.8029375,119.72907887697221L210.6305625,88.26318584680558L211.044375,116.66401867866517L211.4581875,103.0044668197632L212.28581250000002,129.92947499752046L216.63084375,139.64355479478837L216.83775,175.95401634573938L217.25156249999998,125.76612459421159L219.320625,257.0790203243494L220.35515625,257.7190491884947L220.76896875,159.1157462179661L221.59659374999998,113.02689300775529L222.2173125,179.70511468052865L223.66565625,124.32591639757158L224.07946875,98.64732693433763L224.90709375,165.7540359377861L225.5278125,164.18546243309976L225.73471875,265.84938758909703L226.14853125000002,183.5430182993412L226.56234375,182.72467120289804L227.38996875,160.76775436401368L228.01068750000002,218.98989872932435L229.45903124999998,275.01946251392366L229.87284375000002,155.1591847419739L230.28665625,156.40101938247682L231.735,122.71964787244798L232.562625,174.02427847981454L233.18334374999998,117.69399719238282L234.21787500000002,132.56635122299195L235.66621874999998,115.22790019512178L236.2869375,145.39144431352616L237.52837499999998,94.40476642847062L237.94218750000002,140.78955082893373L238.56290625000003,112.93995289802552L238.97671875,139.2126518368721L240.4250625,131.9948699951172L240.838875,234.90186007618905L242.90793749999997,260.2721200019121L243.94246875000002,173.10121675133706L244.77009375,227.71779589653016L245.39081249999998,95.34764753580095L246.2184375,267.418410512805L246.83915625,234.24719138741494L247.0460625,104.24081854820253L247.25296874999998,188.55222024321557L247.459875,144.39600365161897L248.28750000000002,274.9647738367319L248.49440625,108.60054259300233L251.39109375,157.2078725874424L251.59799999999998,286.2873467832804L252.21871875,235.7234429895878L252.8394375,155.8481216311455L253.66706250000001,145.31668345928193L255.52921875,182.877552318573L256.77065625,194.34610779881478L257.8051875,137.49479256868364L258.83971875,222.88735036849977L259.4604375,268.2241008460522L259.87425,149.14559869766236L260.2880625,150.55272965431215L261.5295,158.24517663121225L262.97784375000003,246.80271733105184L264.21928125,137.6169221878052L266.70215625,242.6989205658436L268.1505,245.57582025527955L269.3919375,140.05697535276414L269.59884375,142.24137650728227L269.80575,269.4808056384325L270.633375,122.95500861406327L271.461,215.04621310830117L272.08171875,195.66780419945718L274.3576875,135.80362879037858L275.599125,135.3375812649727L277.46128125,201.60387669801713L277.66818750000004,224.13096021413804L279.94415625,133.73773943185807L280.9786875,211.7802176654339L283.66846875,183.29991631507875L284.2891875,173.7856032729149L284.90990625,116.93890582323075L285.73753125,221.97036703228952L286.35825,148.81480382680894L287.39278125000004,140.64629851579667L287.5996875,128.20170603990556L289.46184375,162.39502199292184L289.87565625,262.89673270583154L290.70328125,111.75382374525071L290.9101875,156.36597593426706L292.5654375,134.1465309739113L292.77234375,139.7971212744713L294.2206875,107.77909450531007L294.84140625,153.6199807703495L296.7035625,246.2462523162365L297.5311875,101.34945880174638L299.60025,133.6091381788254L300.0140625,192.10555173754693L303.3245625,212.57027383446695L304.566,131.53520421981813L305.8074375,90.61638878583909L306.01434375,135.44600360393525L306.22125,169.538739579916L308.08340625,201.19883780479432L308.29031249999997,175.5475280761719L311.18699999999995,271.8250539034605L311.39390625000004,127.4021896004677L312.22153125,158.33607162833215L313.669875,227.42126922607423L313.87678125,174.07140006422998L315.53203125,130.589581656456L316.35965625,202.8883836746216L318.01490624999997,164.7498877823353L318.84253125000004,235.61108823418618L321.32540625,159.130970287323L322.56684375000003,172.9968728899956L323.1875625,197.2831172823906L324.429,160.0013264000416L325.04971874999995,139.94136230945588L325.256625,154.06515278220178L325.6704375,181.27367694973947L325.87734375,183.20275192260743L327.11878125000004,173.2267844259739L327.94640625,137.148829805851L328.15331249999997,235.87282987236978L331.25690625,188.8228379070759L332.70525000000004,180.5026424407959L333.32596875,148.33734105825425L334.15359374999997,173.96494393348695L335.60193749999996,261.26490909159185L336.01575,158.6585073053837L336.63646875,170.7609795510769L337.46409374999996,188.67668684124948L339.7400625,214.68948675990106L340.36078125,181.98468031287194L342.42984375,185.83506654500962L342.63675,179.08632086515428L349.05084375,190.4571726500988L349.25775,212.36064233183862L350.4991875,159.67402576208116L351.53371875,147.90216861963273L352.77515625,261.46356353461744L352.9820625,200.35701979994775L358.56853125,224.2568649530411L358.77543749999995,221.4748263835907L359.18925,182.99836738705636L359.6030625,190.8206065773964L361.05140625,211.660930621624L361.46521875,183.92476605176927L362.49974999999995,266.9638962030411L363.327375,177.08666463494302L369.32765624999996,270.35254371464254L369.53456250000005,270.8231809318066L370.3621875,265.3922835022211L370.56909375,243.7964467585087L371.603625,223.08171285986901L372.22434375,258.26221701800824L373.46578125,268.52826202213765L376.56937500000004,213.144215631485L376.9831875,234.78746046423913L377.60390624999997,199.75576456189157L377.8108125,240.89152579307557L379.67296875,200.97710569500924L380.7075,245.95613548457624L381.1213125,242.36285625696183L381.535125,299.3242398232222L382.36275,281.0133640050888L383.39728125,260.05902797281743L383.81109375,264.04038614332677L385.88015625,291.46783916950227L386.500875,274.112091127038L387.53540625,315.2491528645158L387.7423125,312.9377571299672L388.36303125,269.2701910316944L389.19065625,273.78182994127275L391.67353125,295.0364761903882L392.08734375,309.198214481771L392.50115625,282.81546125113965L392.70806250000004,307.5894910052419L392.91496875,288.6624195754528L394.3633125,284.60019406974317L394.777125,297.070448371768L396.8461875,285.3738801509142L397.88071875,294.29571005254985L398.70834375,308.46052967309953L399.12215625,291.96550894081594L399.32906249999996,286.5241681367159L399.94978125,303.42528951466085L400.5705,314.68662911951543L400.77740625,293.57350211143495L401.19121874999996,292.36694124639035L401.398125,305.9402046531439L401.60503125,312.81377646625043L404.08790625,316.4479387804866L406.7776875,300.2473464936018L407.1915,317.1004011027515L409.2605625,300.26044424921275L409.88128125,324.0292037047446L412.36415625,322.3962762050331L413.19178124999996,312.1367154747248L414.2263125,311.7804357364774L414.43321875,307.2760212376714L414.640125,306.8048110112548L414.84703125,311.37761584967376L415.88156250000003,325.90882994532586L416.91609374999996,300.2053454771638L417.12300000000005,312.3937354043126L418.15753125,303.44179161936046L418.57134375,302.9563966050744L419.605875,310.03158621788026L421.6749375,312.8172341838479L422.08875,307.64969630092384L425.81306250000006,310.6698904365301L426.01996875000003,308.53970326036216L428.70975,306.2995235875249L430.365,307.7575512483716L430.98571875,316.48044582009317L435.12384375,308.78097667098046L435.33075,332.0563021294773L437.3998125,306.7840984120965L439.26196875,309.56700773090125L439.67578125,314.7618197306991L443.607,314.5552527040243L444.22771875,325.7349792189896L445.88296875000003,311.6399698212743L446.29678125,327.05888900831343L449.8141875,313.4448506563902L450.02109375,313.11905838102103L451.26253125,316.5528542466462L451.67634375,313.95200316905976L453.1246875,320.84807963967324L453.74540625,317.34562659189106L453.95231249999995,313.97376909404994L454.57303125,315.55851887464524L454.7799375,321.97968583852054L456.4351875,324.4425554454327L457.2628125,324.76373696252705L457.67662499999994,330.8306767690927L461.19403125,314.0210198864341L462.2285625,318.2074170589447L462.64237499999996,314.60663534253837L462.84928125000005,316.18459046930076L463.47,321.4565185599029L464.09071875,325.56266353949906L467.608125,326.48912119045855L467.81503125,321.1857393860817L468.0219375,324.30774940103294L468.43575000000004,331.5496910262853L470.091,319.31982744783164L470.5048125,323.0380535900593L472.573875,331.7939032159746L472.78078125,318.5436807975173L473.40150000000006,323.0073161378503L475.88437500000003,322.14225193411113L476.09128125,317.8823831781745L476.91890624999996,328.3041104424745L478.16034375,330.00838742516936L479.194875,316.6945560641587L479.40178125,316.57559484913946L479.81559375,317.2733754619956L480.64321875,316.0827745899558L481.05703125,317.8584094822407L481.67775,323.46332195699216L482.09156249999995,320.49764234870673L483.33299999999997,329.3751145929098L484.98825,316.5971978597343L486.2296875,332.23574320711197L486.6435,319.24711847230793L488.91946874999996,316.92750117853285L489.954,323.52649763152004L490.57471875,320.7989398829639L490.78162499999996,321.5253133766353L492.85068750000005,321.04332552030684L493.05759375,330.7181071352214L493.47140625000003,327.47503276467324L493.6783125,321.7081623144448L493.88521875,317.9865697428584L494.29903125,317.3265571810305L494.71284375000005,311.30202076137067L494.91975,323.57936897054316L495.3335625,324.2552081041038L495.747375,329.0869815248996L495.95428125,329.27334014438094L498.43715625000004,325.5885500751436L499.4716875,319.32090184018017L499.88550000000004,324.79907253310085L500.09240625,320.6157300055027L500.713125,317.9435182094574L502.16146875000004,319.9196543760598L502.57528125,320.5022025473416L502.7821875,319.40521284863354L507.54103125,324.5117168195546L507.7479375,325.3626762881875L508.16175,327.19924678206445L508.36865624999996,328.22929270863534L509.19628125,328.95971869789065L509.4031875,320.4020719893277L511.8860625,325.38492674306036L512.50678125,323.6932503461838L513.5413125,319.3182727389038L514.98965625,321.5253625318408L515.1965625,321.76346613392235L517.05871875,321.6936460800469L517.88634375,323.4058735661209L518.09325,325.16201490834356L519.95540625,331.6940373938531L520.3692187500001,331.04604679085315L520.9899375,315.29783056229354L523.886625,319.83840784356L527.40403125,322.70789492800833L527.6109375,326.64249526262284L528.64546875,317.7939361102879L532.78359375,313.8101384371519L533.19740625,318.0811232917011L533.818125,322.5400425411761L534.2319375000001,320.5840810753405L534.85265625,320.0670862860978L535.473375,312.548829908669L536.0940937500001,325.1350399360061L537.9562500000001,332.7260059911758L538.783875,324.9527850739658L539.1976875,326.27823552787305L539.6115,327.0319154404104L540.0253125,321.6898274227977L540.23221875,331.0266964931041L542.5081875,325.9784126497805L542.7150937499999,322.8268505252898L543.749625,334.2857589453459L545.8186875,328.5776472233236L547.2670312500001,326.94423659816385L547.68084375,326.4923233009875L548.09465625,322.75956126227976L548.50846875,326.2866466857493L549.1291875000001,321.80527474284173L549.543,332.4131176594645L550.7844375,325.8963262654841L552.23278125,330.32543709613384L553.06040625,325.73861389532686L554.0949375,325.6112120293081L555.5432812500001,322.7172021150589L556.164,327.8953785888851L557.81925,328.59817373491825L558.85378125,333.2215466398746L559.8883125,327.18802394643427L560.7159375,333.0399680130184L561.1297500000001,325.1283028639853L561.5435625,325.5419916689396L562.99190625,326.353528662771L563.1988125,332.3963950585574L564.44025,328.5059592716396L564.8540625,331.8743850339204L565.47478125,326.1428649008274L567.13003125,333.16520634777845L568.37146875,328.8319278035313L568.78528125,327.86493045017124L570.02671875,332.4144195701927L571.26815625,327.6759659025818L572.50959375,323.1573153540492L572.7165,331.5333406005055L573.33721875,333.16973494663836L574.57865625,328.983624278754L574.7855625000001,328.3071355942637L575.40628125,325.5041126675904L576.4408125,328.3938025414944L577.06153125,329.86641806289555L577.68225,326.1399113751948L579.7513125,325.44243131130935L580.5789375,328.01787827648224L580.78584375,325.34410826042296L581.4065625,330.01417439728976L585.3377812499999,331.2373469129205L586.99303125,332.8148926470429L588.441375,325.9886917054653L589.269,327.8052440930158L589.6828125,325.69313830807806L590.096625,332.3825262684375L590.30353125,325.4463735587895L592.1656875,322.6692757897079L593.8209375,324.9673041172326L594.02784375,325.2922565408051L594.85546875,319.6836012482643L595.26928125,332.78480474576355L596.3038125,324.65696202516557L596.717625,324.01747948601843L597.75215625,322.84666990414263L598.16596875,323.39432209283115L598.7866875,327.58785238787533L599.40740625,326.2248684234917L599.8212187500001,326.6596785180271L600.23503125,331.38456043340267L600.4419375,328.4511069778353L601.06265625,324.1050544001162L601.6833750000001,325.62711163163186L602.30409375,325.4708345934749L604.5800624999999,329.08369233943523L604.993875,329.1591357488185L605.8215,329.5754262685776L606.649125,326.1534374833107L606.85603125,328.7822241663933L608.3043749999999,333.34493112117053L609.33890625,333.18078714348377L610.3734375,331.55711135566236L611.614875,328.4141394544393L612.0286875,327.5882308829576L612.23559375,328.64513521380724L613.06321875,326.25697098597885L614.30465625,330.91940331943334L614.5115625,326.62394549250604L615.3391875,328.11012433953584L615.5460937500001,331.26201510168613L618.235875,331.25532437600197L619.0635,332.5504362370819L620.3049374999999,335.1181616216898L620.71875,333.88240748010577L621.3394687499999,328.9331222206354L622.9947187500001,330.0125635109842L624.64996875,330.82231195755304L624.856875,324.1441355973482L625.0637812499999,328.63102837204934L627.96046875,322.51818532794715L630.44334375,328.74762100838126L633.34003125,333.2667876865715L634.16765625,335.778072010912L634.788375,328.8888937711716L635.40909375,326.6764685317874L635.616,330.3657001249492L636.6505312500001,331.08165973722936L637.47815625,331.31379940845073L638.71959375,327.5753662634641L638.9265,330.4422551441938L639.13340625,328.85765704251827L641.4093750000001,330.9130601912737L641.61628125,333.5096695257351L642.03009375,326.05757359713317L642.237,328.0593427989632L642.4439062499999,327.8384168345481L642.85771875,333.1686760030687L645.34059375,335.35871596187354L645.5475,329.9966330111027L645.9613125,330.7858163241297L646.58203125,324.13170775696636L646.7889375,325.6633923865855L647.4096562499999,328.7131688270718L647.8234687500001,334.06134928129615L648.030375,331.8485286936164L648.65109375,332.8431863833219L651.5477812500001,328.8222526546568L652.37540625,336.48348590051756L652.5823125,333.8861646933481L653.4099375,328.4065288241953L658.58259375,328.53705134354533L660.0309374999999,327.9282233949751L660.65165625,336.1736794246361L661.6861875000001,332.8158504713327L662.7207187500001,327.45844920277597L664.1690625,328.43872829265894L665.2035937500001,333.59180998075755L666.03121875,331.06672708801926L666.44503125,329.15602843761445L666.85884375,325.69969701692463L667.4795624999999,330.13579350449146L667.68646875,334.5233095513657L667.893375,331.5308182362467L674.30746875,326.7091483168304L674.72128125,329.95837621688844L677.20415625,329.8810656119138L678.2386875,330.0085243575275L678.8594062499999,328.5301541659981L679.8939375,328.0852447833866L680.10084375,334.20895323455335L681.3422812499999,331.15909463465215L681.75609375,331.4544921398163L683.82515625,335.1709929343313L684.0320625,335.88843527827413L685.6873125,327.6758984897286L685.8942187499999,334.0298832787201L686.1011249999999,330.1460936266929L687.756375,329.92269445322455L687.96328125,333.53126305639745L688.1701875,331.6494901377708L688.584,332.32027611620725L690.2392500000001,337.0954025515355L691.27378125,327.47823627963663L695.205,332.10495173856617L696.2395312499999,333.5527284324169L696.8602500000001,329.36524212099613L697.89478125,331.7397784192115L698.30859375,331.53911984823645L699.13621875,329.0286272738129L699.9638437499999,328.04219184555114L700.5845625000001,325.8653079263866L700.998375,334.12346811890603L703.8950624999999,330.2988560676575L704.7226875,331.52385926358403L707.619375,333.8469865901396L710.5160625000001,331.214494657889L710.7229687500001,333.3070177111775L711.13678125,331.4356713138521L711.5505937500001,333.7464617371559L713.20584375,330.5806474119425L714.2403750000001,327.16833798885347L714.86109375,328.8104877073318L717.5508749999999,335.90479834396393L717.9646875000001,329.49536016322674L718.7923125,332.64076524712146L723.13734375,331.57229820750655L724.9994999999999,326.1576184846461L725.827125,329.45694045461715L727.6892812499999,331.4139159221202L728.93071875,335.63651449903847L729.96525,333.1898478522897L730.17215625,335.06357792597265L732.24121875,331.69549660123886L732.8619375000001,335.011547492072L733.48265625,329.3459227208048L736.79315625,330.27211423143746L737.20696875,330.256158451736L737.8276875,328.95359115041794L738.03459375,328.31918985508383L738.8622187499999,328.2586194064468L740.3105625000001,332.3833773557097L740.51746875,328.2711209796369L740.93128125,330.20195851773025L742.3796249999999,332.29557000771166L742.5865312499999,327.07018627896906L742.7934375000001,327.7798378739506L743.6210625,332.39835143573583L744.65559375,332.34300758987666L745.2763125,331.90156645812095L746.5177500000001,331.4841011289507L746.9315625,335.53188869748266L747.7591875,329.63663924597205L747.96609375,330.67728092819453L748.7937187499999,329.61249420903624L749.2075312500001,331.47746938951315L750.4489687500001,333.92415640056134L752.7249374999999,332.65647735744716L753.1387500000001,325.1892918340862L753.34565625,333.39214188717307L753.966375,328.44336011745037L754.58709375,331.83509738482536L754.794,331.2724310897291L755.2078124999999,329.323415254429L755.82853125,327.7111392609775L758.5183125,330.27759082354606L760.1735624999999,333.1506030384451L760.3804687500001,331.5192709762603L760.5873750000001,334.507340429537L760.79428125,329.45618416666986L761.415,331.28363988101484L761.62190625,334.15729462467135L764.1047812500001,335.5793002976105L764.93240625,336.347916370444L766.17384375,333.9613728599623L767.0014687500001,332.5752013318241L767.6221875,333.5941265953705L768.0360000000001,331.43728922232987L769.2774375,337.1972226441838L770.7257812500001,334.1055812418461L772.79484375,331.82212673053147L773.00175,332.4287897434086L773.4155625,335.3101478099823L774.4500937500001,329.82460524067284L777.3467812499999,333.4631005862728L777.7605937499999,332.0912395428866L782.105625,333.14874426946045L782.5194375,332.9213487777859L783.14015625,332.3117069594562L783.9677812499999,337.0050623060204L784.1746875,331.2192500729114L787.071375,333.29029089696706L787.6920937499999,333.6362996550277L788.1059062500001,332.0522538471967L788.51971875,335.7743923926726L788.93353125,330.01754293330015L790.17496875,331.88645825460554L792.0371250000001,332.8553712565452L792.4509375,332.536891169101L792.8647500000001,335.06125850249083L793.2785625,331.352922738716L793.692375,334.69673368074L794.52,330.78694408498706L796.79596875,333.4342401606962L798.2443125,329.41963376030327L798.45121875,335.4352225281298L799.0719375000001,337.38626092458145L800.52028125,333.0899988833815L803.0031562500001,336.24842553231866L804.4515,333.18743854500354L806.10675,334.02719062678517L807.14128125,330.52765318490566L808.1758125,334.2949516709894L808.589625,331.3143892709166L809.0034374999999,337.2128460995853L809.2103437500001,333.319196966663L810.244875,334.3522346897051L810.4517812500001,333.54294619541616L810.6586875,335.36929837539793L811.900125,333.05817650556565L813.34846875,335.49392683450134L813.555375,331.59743407294155L814.383,333.3272626336664L815.41753125,331.4588845085353L816.6589687500001,332.08098085150124L818.1073125,336.6684176146053L818.9349374999999,332.88350488729776L819.14184375,332.65792673379184L819.55565625,332.8324951261282L819.9694687499999,332.90437548533083L820.79709375,333.42136992346497L822.86615625,334.6278595134616L824.1075937500001,332.36291053257884L824.93521875,332.3860794875771L825.76284375,334.167079670541L825.96975,333.6774713529274L826.17665625,335.0732014618814L827.0042812500001,333.98815542478116L830.5216875000001,336.26583209279926L830.7285937500001,334.355971538648L831.3493125,330.9274844352156L831.97003125,330.2401963520795L832.59075,330.08057324886323L833.0045625,332.39916460327805L833.418375,337.1681822754443L834.2460000000001,334.4904289321974L835.073625,336.92320203566925L836.5219687499999,334.1111529843882L836.728875,336.89227919811384L836.93578125,335.3015431912616L837.1426875,334.54348600767554L837.5564999999999,331.85813853628935L837.7634062499999,334.0114030281082L837.9703125000001,329.2480111692101L838.384125,333.5635738262907L840.4531875,336.61805564882235L840.66009375,332.5159791402519L840.867,334.81339583657683L841.2808124999999,329.4918273083866L842.72915625,334.20554151218386L843.14296875,334.18446867559106L843.55678125,334.41454382818193L843.7636875,333.25771293342115L844.1775,331.78623991943897L844.79821875,333.03934655077757L846.03965625,331.77911171242596L846.45346875,334.6293861337006L847.0741875,333.34459124803544L849.1432500000001,332.304889132455L849.76396875,332.8851649288088L850.7985,334.06083069387824L851.2123124999999,333.5204836709425L854.31590625,335.90520457662643L854.9366249999999,332.31759434863926L855.5573437500001,334.29016781616957L856.591875,336.8746372193098L856.79878125,336.42250851700084L858.8678437499999,332.2616290405393L859.0747499999999,332.63415878750385L860.10928125,337.468024815619L862.17834375,334.4674095494673L863.0059687500001,334.6795901006088L863.41978125,331.60107787810267L864.24740625,336.39196277009324L864.4543125,335.2343072967604L866.1095625,336.92452044850216L866.7302812500001,333.3191730912775L867.55790625,335.98580471817405L867.7648125,336.45505698742346L868.38553125,334.6920958871022L868.7993437499999,332.7221683740616L870.04078125,331.57365910448135L870.6615,334.3371728325263L872.31675,332.92605644203724L873.5581875,329.19208378084005L875.00653125,336.6434448391199L876.0410625,332.1838718254119L876.4548749999999,332.71300795041026L877.2825,337.6200876726769L877.48940625,336.0519988734275L878.31703125,333.59254028666766L879.55846875,331.38008379861714L882.04134375,334.6683834159747L882.6620624999999,333.0812625989318L886.17946875,334.42779536936433L888.66234375,334.13390341792257L891.55903125,332.59603962786497L897.5593124999999,333.31901579461993L897.7662187499999,335.58776798397304L898.59384375,333.3201309155673L898.80075,333.4167166810483L900.456,332.43784974999727L902.5250625,331.83023804165424L903.14578125,334.5956252852455L903.3526875,331.1939421642572L904.80103125,330.6526169527322L905.42175,333.1532251175493L905.6286562500001,333.3908512119204L905.8355625,333.9020144382492L908.1115312500001,333.57938389591874L909.76678125,330.4485385838896L910.3874999999999,332.7369984995574L910.8013125,336.71408332716675L911.00821875,332.80403426215054L913.2841875,333.39452661685647L913.698,332.6219402078539L917.0085,335.97030397523196L918.2499375,330.6045340329409L919.2844687500001,332.1633137140423L921.97425,330.8329196508974L922.3880625,334.4474469183013L923.83640625,334.9281068818644L924.25021875,334.5867640061304L925.0778437499999,337.75667366217823L926.7330937500001,334.9663928180933L928.59525,335.543962620385L932.11265625,333.7045551689342L932.5264687499999,332.30606323964895L933.1471875000001,334.353262735717L934.18171875,335.6059332901612L934.8024375,334.14480990469457L937.0784062500001,333.7151691822335L938.52675,332.5648829519749L938.73365625,334.5375234812498L940.38890625,335.69359879028053L941.21653125,334.6561722096056L942.04415625,336.43293644273655L943.0786875,337.30481619127096L943.4925000000001,337.1372866488062L944.11321875,332.3804280433804L944.3201250000001,337.93616494834424L947.630625,333.4638203589246L947.83753125,333.677695360221L948.0444375000001,334.47820017039777L950.3204062499999,332.2602814856917L950.941125,334.2128326335922L955.28615625,334.44177791867406L956.7345,337.03072746768595L956.94140625,334.6003494516015L958.1828437500001,335.0898190813139L959.6311875,331.11840465776623L960.4588124999999,333.31022333279253L961.70025,336.68955856626854L961.9071562500001,336.7666943191551L963.14859375,334.26812591981144L963.56240625,333.86340548209847L963.9762187499999,334.63628366235645L966.2521875,334.97667292710395L967.0798125,333.28858872242273L969.9765,334.4894704056904L970.3903124999999,332.7541705194861L970.59721875,332.73695496208967L971.01103125,335.27182395402343L972.459375,333.1518473673612L974.1146249999999,336.7177573276684L974.73534375,335.20036808513106L979.2872812500001,337.15066616907717L980.3218125,337.442694611568L980.94253125,334.30278069078923L981.1494375,333.5570741036907L983.01159375,330.44185768924655L983.2185000000001,334.23144981656225L985.08065625,336.4622396162711L986.529,337.2077922422439L986.73590625,334.8099837630987L989.6325937500001,333.7568489342928L989.8395,335.094346626848L990.667125,334.3044603943825L994.59834375,333.6415476754308L995.2190625,337.00266932528467L995.83978125,332.26334947273136L996.0466875,334.4520046591759L997.0812187500001,335.12124786637725L997.288125,334.5256609257311L997.49503125,334.11190786790104L997.7019375,335.25538539998234L998.11575,335.23546174187214L998.73646875,336.08834879677744L999.3571875,335.92231164146216L1002.8745937499999,334.6938833810389L1003.2884062500001,336.5733388072811L1003.4953125000001,336.64838107507677L1008.4610625,332.17413277477027L1009.90940625,335.46265745274724L1011.97846875,334.448501297459L1012.5991875,335.90592856258155L1013.0129999999999,336.95372566273437L1014.87515625,335.3351411253214L1016.5304062499999,334.10107125174255L1017.5649374999999,334.11416725181044L1018.3925625,333.77453392390163L1019.42709375,335.4887104138732L1019.634,337.6240341334604L1019.84090625,334.34290924500675L1020.2547187499999,330.6036990966648L1021.9099687500001,336.68865305716173L1022.116875,337.0244015438482L1023.15140625,335.23626788724215L1023.56521875,337.1007037648931L1023.772125,336.18436717074366L1024.1859375,336.0350996648893L1025.63428125,336.04606057349594L1026.04809375,332.5875652704388L1027.082625,334.8914511429146L1029.1516875,336.38639348531143L1029.35859375,335.02813280951233L1030.393125,337.82037582406775L1030.8069375,334.871930908598L1031.01384375,336.3213002311066L1033.2898125000002,336.37164903031663L1033.4967187500001,335.75780286192895L1033.91053125,335.6351736152545L1034.32434375,335.8450199963525L1036.6003125,334.920575953275L1036.80721875,335.65463767219336L1038.04865625,336.5513959235512L1038.46246875,336.64431155072526L1039.497,335.42131160497667L1040.9453437500001,334.44262022823096L1041.35915625,334.3706261098385L1042.18678125,337.39519558539615L1042.8075,335.868085023202L1045.7041875,335.0325673112646L1047.3594375,335.0616700017825L1047.98015625,334.9091649234295L1048.39396875,334.2076239373535L1049.0146875,335.1374185245484L1049.22159375,334.7193977415562L1050.87684375,336.8155059648678L1051.08375,334.4719813346863L1052.53209375,337.4551689738408L1053.35971875,335.1048935784027L1055.6356875000001,337.46943012783305L1056.25640625,332.22538409866394L1056.4633125,334.2526034081355L1058.532375,331.2015766698867L1061.01525,335.1299992484972L1061.22215625,336.86315421219916L1061.6359687499998,332.7045925792307L1062.87740625,333.67215802632273L1063.0843125,336.10906912032516L1063.9119375,336.1845037519932L1065.5671875,338.22610631347635L1065.981,335.63595588523896L1066.3948125,335.4074891611934L1067.42934375,335.86368036568166L1068.6707812500001,335.98279887735845L1069.49840625,336.6810777133331L1070.5329375,332.34656502231957L1071.15365625,335.7673266829923L1071.9812812500002,334.78483876883985L1072.80890625,335.7158769827336L1073.0158125,335.6139469930902L1073.429625,337.3858596074395L1074.2572499999999,336.07662317361684L1075.4986875,337.3313861598261L1079.84371875,334.0456326065585L1082.1196875,332.57515779435636L1082.74040625,333.4067297477275L1084.6025625,335.3994842359796L1086.46471875,334.06202024985106L1087.29234375,336.0125834207982L1087.70615625,336.2395754886791L1088.53378125,337.5069804915227L1092.8788124999999,336.8614585331641L1093.49953125,333.124114702642L1093.7064375,332.95746521390976L1095.98240625,336.1977661775425L1098.6721875,336.14660438634456L1099.4998125,335.04910768680276L1100.74125,334.48609414529056L1101.568875,335.1184846416116L1101.77578125,334.5476891288534L1101.9826875,336.6739970815368L1103.224125,335.50870499592276L1104.879375,337.6309479886666L1107.98296875,335.09921053443105L1108.189875,336.46867807041855L1110.46584375,334.70827286522837L1112.328,334.7680873770267L1113.1556249999999,337.92118928832934L1113.36253125,332.7102686010301L1113.77634375,336.28647517245264L1116.67303125,335.3266727367416L1117.08684375,336.18350449688734L1117.50065625,335.7575707791373L1120.81115625,332.75318249985577L1121.0180625,337.40668280581014L1121.22496875,332.4943852584809L1123.5009375,334.1906067563221L1123.91475,333.3276916883886L1127.01834375,335.421858632192L1127.43215625,335.901742294617L1128.4666875,334.92315203715117L1130.32884375,335.16890067812056L1130.9495625,333.740882621333L1131.15646875,334.6197215180844L1131.5702812499999,334.57923448197545L1134.46696875,336.2580578459427L1135.9153125,335.6299189237878L1137.77746875,337.3994420684874" style="fill: none;" fill="none"></path></g></g></g></g></g></g><g transform="translate(51, 377)" clip-path="url(#clip_1)"><clipPath id="clip_1"><rect width="1241" height="23"></rect></clipPath><g><g><line x1="0" y1="0" x2="0" y2="5" style="visibility: inherit;" fill="rgb(0, 0, 0)" stroke="rgb(204, 204, 204)" stroke-width="1px"></line><line x1="103.453125" y1="0" x2="103.453125" y2="5" style="visibility: inherit;" fill="rgb(0, 0, 0)" stroke="rgb(204, 204, 204)" stroke-width="1px"></line><line x1="206.90625" y1="0" x2="206.90625" y2="5" style="visibility: inherit;" fill="rgb(0, 0, 0)" stroke="rgb(204, 204, 204)" stroke-width="1px"></line><line x1="310.359375" y1="0" x2="310.359375" y2="5" style="visibility: inherit;" fill="rgb(0, 0, 0)" stroke="rgb(204, 204, 204)" stroke-width="1px"></line><line x1="413.8125" y1="0" x2="413.8125" y2="5" style="visibility: inherit;" fill="rgb(0, 0, 0)" stroke="rgb(204, 204, 204)" stroke-width="1px"></line><line x1="517.265625" y1="0" x2="517.265625" y2="5" style="visibility: inherit;" fill="rgb(0, 0, 0)" stroke="rgb(204, 204, 204)" stroke-width="1px"></line><line x1="620.71875" y1="0" x2="620.71875" y2="5" style="visibility: inherit;" fill="rgb(0, 0, 0)" stroke="rgb(204, 204, 204)" stroke-width="1px"></line><line x1="724.171875" y1="0" x2="724.171875" y2="5" style="visibility: inherit;" fill="rgb(0, 0, 0)" stroke="rgb(204, 204, 204)" stroke-width="1px"></line><line x1="827.625" y1="0" x2="827.625" y2="5" style="visibility: inherit;" fill="rgb(0, 0, 0)" stroke="rgb(204, 204, 204)" stroke-width="1px"></line><line x1="931.078125" y1="0" x2="931.078125" y2="5" style="visibility: inherit;" fill="rgb(0, 0, 0)" stroke="rgb(204, 204, 204)" stroke-width="1px"></line><line x1="1034.53125" y1="0" x2="1034.53125" y2="5" style="visibility: inherit;" fill="rgb(0, 0, 0)" stroke="rgb(204, 204, 204)" stroke-width="1px"></line><line x1="1137.984375" y1="0" x2="1137.984375" y2="5" style="visibility: inherit;" fill="rgb(0, 0, 0)" stroke="rgb(204, 204, 204)" stroke-width="1px"></line><line x1="1241.4375" y1="0" x2="1241.4375" y2="5" style="visibility: inherit;" fill="rgb(0, 0, 0)" stroke="rgb(204, 204, 204)" stroke-width="1px"></line></g><g transform="translate(0, 8)"><text x="0" y="0" dx="0em" dy="0.95em" style="text-anchor: middle; visibility: hidden; font-family: Roboto, sans-serif; font-size: 12px; font-weight: 200;" fill="rgb(33, 33, 33)" stroke="none" stroke-width="1px">-500</text><text x="103.453125" y="0" dx="0em" dy="0.95em" style="text-anchor: middle; visibility: inherit; font-family: Roboto, sans-serif; font-size: 12px; font-weight: 200;" fill="rgb(33, 33, 33)" stroke="none" stroke-width="1px">0</text><text x="206.90625" y="0" dx="0em" dy="0.95em" style="text-anchor: middle; visibility: inherit; font-family: Roboto, sans-serif; font-size: 12px; font-weight: 200;" fill="rgb(33, 33, 33)" stroke="none" stroke-width="1px">500</text><text x="310.359375" y="0" dx="0em" dy="0.95em" style="text-anchor: middle; visibility: inherit; font-family: Roboto, sans-serif; font-size: 12px; font-weight: 200;" fill="rgb(33, 33, 33)" stroke="none" stroke-width="1px">1k</text><text x="413.8125" y="0" dx="0em" dy="0.95em" style="text-anchor: middle; visibility: inherit; font-family: Roboto, sans-serif; font-size: 12px; font-weight: 200;" fill="rgb(33, 33, 33)" stroke="none" stroke-width="1px">1.5k</text><text x="517.265625" y="0" dx="0em" dy="0.95em" style="text-anchor: middle; visibility: inherit; font-family: Roboto, sans-serif; font-size: 12px; font-weight: 200;" fill="rgb(33, 33, 33)" stroke="none" stroke-width="1px">2k</text><text x="620.71875" y="0" dx="0em" dy="0.95em" style="text-anchor: middle; visibility: inherit; font-family: Roboto, sans-serif; font-size: 12px; font-weight: 200;" fill="rgb(33, 33, 33)" stroke="none" stroke-width="1px">2.5k</text><text x="724.171875" y="0" dx="0em" dy="0.95em" style="text-anchor: middle; visibility: inherit; font-family: Roboto, sans-serif; font-size: 12px; font-weight: 200;" fill="rgb(33, 33, 33)" stroke="none" stroke-width="1px">3k</text><text x="827.625" y="0" dx="0em" dy="0.95em" style="text-anchor: middle; visibility: inherit; font-family: Roboto, sans-serif; font-size: 12px; font-weight: 200;" fill="rgb(33, 33, 33)" stroke="none" stroke-width="1px">3.5k</text><text x="931.078125" y="0" dx="0em" dy="0.95em" style="text-anchor: middle; visibility: inherit; font-family: Roboto, sans-serif; font-size: 12px; font-weight: 200;" fill="rgb(33, 33, 33)" stroke="none" stroke-width="1px">4k</text><text x="1034.53125" y="0" dx="0em" dy="0.95em" style="text-anchor: middle; visibility: inherit; font-family: Roboto, sans-serif; font-size: 12px; font-weight: 200;" fill="rgb(33, 33, 33)" stroke="none" stroke-width="1px">4.5k</text><text x="1137.984375" y="0" dx="0em" dy="0.95em" style="text-anchor: middle; visibility: inherit; font-family: Roboto, sans-serif; font-size: 12px; font-weight: 200;" fill="rgb(33, 33, 33)" stroke="none" stroke-width="1px">5k</text><text x="1241.4375" y="0" dx="0em" dy="0.95em" style="text-anchor: middle; visibility: hidden; font-family: Roboto, sans-serif; font-size: 12px; font-weight: 200;" fill="rgb(33, 33, 33)" stroke="none" stroke-width="1px">5.5k</text></g><line x1="0" y1="0" x2="1241.4375" y2="0" fill="rgb(0, 0, 0)" stroke="rgb(204, 204, 204)" stroke-width="1px"></line></g></g></g></g></svg>